<svg id="mermaid-1770215480507" width="100%" xmlns="http://www.w3.org/2000/svg" xmlns:xlink="http://www.w3.org/1999/xlink" class="flowchart" style="max-width: 896px;" viewBox="-8 -8 896 1400" role="graphics-document document" aria-roledescription="flowchart-v2" aria-describedby="chart-desc-mermaid-1770215480507" aria-labelledby="chart-title-mermaid-1770215480507" height="auto"><title id="chart-title-mermaid-1770215480507">Graph OLAP Platform Container Diagram</title><desc id="chart-desc-mermaid-1770215480507">Shows major containers including Control Plane, Export Workers, and Graph Instance Pods</desc><style>#mermaid-1770215480507{font-family:"trebuchet ms",verdana,arial,sans-serif;font-size:16px;fill:#333;}@keyframes edge-animation-frame{from{stroke-dashoffset:0;}}@keyframes dash{to{stroke-dashoffset:0;}}#mermaid-1770215480507 .edge-animation-slow{stroke-dasharray:9,5!important;stroke-dashoffset:900;animation:dash 50s linear infinite;stroke-linecap:round;}#mermaid-1770215480507 .edge-animation-fast{stroke-dasharray:9,5!important;stroke-dashoffset:900;animation:dash 20s linear infinite;stroke-linecap:round;}#mermaid-1770215480507 .error-icon{fill:#552222;}#mermaid-1770215480507 .error-text{fill:#552222;stroke:#552222;}#mermaid-1770215480507 .edge-thickness-normal{stroke-width:1px;}#mermaid-1770215480507 .edge-thickness-thick{stroke-width:3.5px;}#mermaid-1770215480507 .edge-pattern-solid{stroke-dasharray:0;}#mermaid-1770215480507 .edge-thickness-invisible{stroke-width:0;fill:none;}#mermaid-1770215480507 .edge-pattern-dashed{stroke-dasharray:3;}#mermaid-1770215480507 .edge-pattern-dotted{stroke-dasharray:2;}#mermaid-1770215480507 .marker{fill:#333333;stroke:#333333;}#mermaid-1770215480507 .marker.cross{stroke:#333333;}#mermaid-1770215480507 svg{font-family:"trebuchet ms",verdana,arial,sans-serif;font-size:16px;}#mermaid-1770215480507 p{margin:0;}#mermaid-1770215480507 .label{font-family:"trebuchet ms",verdana,arial,sans-serif;color:#333;}#mermaid-1770215480507 .cluster-label text{fill:#333;}#mermaid-1770215480507 .cluster-label span{color:#333;}#mermaid-1770215480507 .cluster-label span p{background-color:transparent;}#mermaid-1770215480507 .label text,#mermaid-1770215480507 span{fill:#333;color:#333;}#mermaid-1770215480507 .node rect,#mermaid-1770215480507 .node circle,#mermaid-1770215480507 .node ellipse,#mermaid-1770215480507 .node polygon,#mermaid-1770215480507 .node path{fill:#ECECFF;stroke:#9370DB;stroke-width:1px;}#mermaid-1770215480507 .rough-node .label text,#mermaid-1770215480507 .node .label text,#mermaid-1770215480507 .image-shape .label,#mermaid-1770215480507 .icon-shape .label{text-anchor:middle;}#mermaid-1770215480507 .node .katex path{fill:#000;stroke:#000;stroke-width:1px;}#mermaid-1770215480507 .rough-node .label,#mermaid-1770215480507 .node .label,#mermaid-1770215480507 .image-shape .label,#mermaid-1770215480507 .icon-shape .label{text-align:center;}#mermaid-1770215480507 .node.clickable{cursor:pointer;}#mermaid-1770215480507 .root .anchor path{fill:#333333!important;stroke-width:0;stroke:#333333;}#mermaid-1770215480507 .arrowheadPath{fill:#333333;}#mermaid-1770215480507 .edgePath .path{stroke:#333333;stroke-width:2.0px;}#mermaid-1770215480507 .flowchart-link{stroke:#333333;fill:none;}#mermaid-1770215480507 .edgeLabel{background-color:rgba(232,232,232, 0.8);text-align:center;}#mermaid-1770215480507 .edgeLabel p{background-color:rgba(232,232,232, 0.8);}#mermaid-1770215480507 .edgeLabel rect{opacity:0.5;background-color:rgba(232,232,232, 0.8);fill:rgba(232,232,232, 0.8);}#mermaid-1770215480507 .labelBkg{background-color:rgba(232, 232, 232, 0.5);}#mermaid-1770215480507 .cluster rect{fill:#ffffde;stroke:#aaaa33;stroke-width:1px;}#mermaid-1770215480507 .cluster text{fill:#333;}#mermaid-1770215480507 .cluster span{color:#333;}#mermaid-1770215480507 div.mermaidTooltip{position:absolute;text-align:center;max-width:200px;padding:2px;font-family:"trebuchet ms",verdana,arial,sans-serif;font-size:12px;background:hsl(80, 100%, 96.2745098039%);border:1px solid #aaaa33;border-radius:2px;pointer-events:none;z-index:100;}#mermaid-1770215480507 .flowchartTitleText{text-anchor:middle;font-size:18px;fill:#333;}#mermaid-1770215480507 rect.text{fill:none;stroke-width:0;}#mermaid-1770215480507 .icon-shape,#mermaid-1770215480507 .image-shape{background-color:rgba(232,232,232, 0.8);text-align:center;}#mermaid-1770215480507 .icon-shape p,#mermaid-1770215480507 .image-shape p{background-color:rgba(232,232,232, 0.8);padding:2px;}#mermaid-1770215480507 .icon-shape rect,#mermaid-1770215480507 .image-shape rect{opacity:0.5;background-color:rgba(232,232,232, 0.8);fill:rgba(232,232,232, 0.8);}#mermaid-1770215480507 .label-icon{display:inline-block;height:1em;overflow:visible;vertical-align:-0.125em;}#mermaid-1770215480507 .node .label-icon path{fill:currentColor;stroke:revert;stroke-width:revert;}#mermaid-1770215480507 :root{--mermaid-font-family:"trebuchet ms",verdana,arial,sans-serif;}#mermaid-1770215480507 .user&gt;*{fill:#F3E5F5!important;stroke:#7B1FA2!important;stroke-width:2px!important;color:#4A148C!important;}#mermaid-1770215480507 .user span{fill:#F3E5F5!important;stroke:#7B1FA2!important;stroke-width:2px!important;color:#4A148C!important;}#mermaid-1770215480507 .user tspan{fill:#4A148C!important;}#mermaid-1770215480507 .service&gt;*{fill:#E8F5E9!important;stroke:#2E7D32!important;stroke-width:2px!important;color:#1B5E20!important;}#mermaid-1770215480507 .service span{fill:#E8F5E9!important;stroke:#2E7D32!important;stroke-width:2px!important;color:#1B5E20!important;}#mermaid-1770215480507 .service tspan{fill:#1B5E20!important;}#mermaid-1770215480507 .data&gt;*{fill:#FFF8E1!important;stroke:#F57F17!important;stroke-width:2px!important;color:#E65100!important;}#mermaid-1770215480507 .data span{fill:#FFF8E1!important;stroke:#F57F17!important;stroke-width:2px!important;color:#E65100!important;}#mermaid-1770215480507 .data tspan{fill:#E65100!important;}#mermaid-1770215480507 .external&gt;*{fill:#ECEFF1!important;stroke:#455A64!important;stroke-width:2px!important;color:#263238!important;}#mermaid-1770215480507 .external span{fill:#ECEFF1!important;stroke:#455A64!important;stroke-width:2px!important;color:#263238!important;}#mermaid-1770215480507 .external tspan{fill:#263238!important;}</style><g><marker id="mermaid-1770215480507_flowchart-v2-pointEnd" class="marker flowchart-v2" viewBox="0 0 10 10" refX="5" refY="5" markerUnits="userSpaceOnUse" markerWidth="8" markerHeight="8" orient="auto"><path d="M 0 0 L 10 5 L 0 10 z" class="arrowMarkerPath" style="stroke-width: 1; stroke-dasharray: 1, 0;"></path></marker><marker id="mermaid-1770215480507_flowchart-v2-pointStart" class="marker flowchart-v2" viewBox="0 0 10 10" refX="4.5" refY="5" markerUnits="userSpaceOnUse" markerWidth="8" markerHeight="8" orient="auto"><path d="M 0 5 L 10 10 L 10 0 z" class="arrowMarkerPath" style="stroke-width: 1; stroke-dasharray: 1, 0;"></path></marker><marker id="mermaid-1770215480507_flowchart-v2-circleEnd" class="marker flowchart-v2" viewBox="0 0 10 10" refX="11" refY="5" markerUnits="userSpaceOnUse" markerWidth="11" markerHeight="11" orient="auto"><circle cx="5" cy="5" r="5" class="arrowMarkerPath" style="stroke-width: 1; stroke-dasharray: 1, 0;"></circle></marker><marker id="mermaid-1770215480507_flowchart-v2-circleStart" class="marker flowchart-v2" viewBox="0 0 10 10" refX="-1" refY="5" markerUnits="userSpaceOnUse" markerWidth="11" markerHeight="11" orient="auto"><circle cx="5" cy="5" r="5" class="arrowMarkerPath" style="stroke-width: 1; stroke-dasharray: 1, 0;"></circle></marker><marker id="mermaid-1770215480507_flowchart-v2-crossEnd" class="marker cross flowchart-v2" viewBox="0 0 11 11" refX="12" refY="5.2" markerUnits="userSpaceOnUse" markerWidth="11" markerHeight="11" orient="auto"><path d="M 1,1 l 9,9 M 10,1 l -9,9" class="arrowMarkerPath" style="stroke-width: 2; stroke-dasharray: 1, 0;"></path></marker><marker id="mermaid-1770215480507_flowchart-v2-crossStart" class="marker cross flowchart-v2" viewBox="0 0 11 11" refX="-1" refY="5.2" markerUnits="userSpaceOnUse" markerWidth="11" markerHeight="11" orient="auto"><path d="M 1,1 l 9,9 M 10,1 l -9,9" class="arrowMarkerPath" style="stroke-width: 2; stroke-dasharray: 1, 0;"></path></marker></g><g class="subgraphs"><g class="subgraph"><g class="cluster" id="Platform" data-look="classic"><rect style="" x="91.9609375" y="191.5" width="775.71875" height="787.5"></rect><g class="cluster-label" transform="translate(381.1875, 191.5)"><foreignObject width="197.265625" height="24"><div xmlns="http://www.w3.org/1999/xhtml" style="display: table-cell; white-space: nowrap; line-height: 1.5; max-width: 200px; text-align: center;"><span class="nodeLabel"><p>Graph OLAP Platform (GKE)</p></span></div></foreignObject></g></g></g><g class="subgraph"><g class="cluster" id="AsyncTier" data-look="classic"><rect style="" x="394.2682291666665" y="230.5" width="254.046875" height="177"></rect><g class="cluster-label" transform="translate(461.6901041666665, 230.5)"><foreignObject width="119.203125" height="24"><div xmlns="http://www.w3.org/1999/xhtml" style="display: table-cell; white-space: nowrap; line-height: 1.5; max-width: 200px; text-align: center;"><span class="nodeLabel"><p>Async Processing</p></span></div></foreignObject></g></g></g><g class="subgraph"><g class="cluster" id="DataTier" data-look="classic"><rect style="" x="135.9609375" y="782.5" width="719.71875" height="177"></rect><g class="cluster-label" transform="translate(463, 782.5)"><foreignObject width="65.640625" height="24"><div xmlns="http://www.w3.org/1999/xhtml" style="display: table-cell; white-space: nowrap; line-height: 1.5; max-width: 200px; text-align: center;"><span class="nodeLabel"><p>Data Tier</p></span></div></foreignObject></g></g></g><g class="subgraph"><g class="cluster" id="ControlTier" data-look="classic"><rect style="" x="497.95052083333326" y="506.5" width="254.046875" height="177"></rect><g class="cluster-label" transform="translate(582.2552083333333, 506.5)"><foreignObject width="85.4375" height="24"><div xmlns="http://www.w3.org/1999/xhtml" style="display: table-cell; white-space: nowrap; line-height: 1.5; max-width: 200px; text-align: center;"><span class="nodeLabel"><p>Control Tier</p></span></div></foreignObject></g></g></g></g><g class="nodes"><g class="node default service" id="flowchart-ExportWorker-5" transform="translate(521.2916666666665, 332.5)"><rect class="basic label-container" style="fill:#E8F5E9 !important;stroke:#2E7D32 !important;stroke-width:2px !important" x="-115.0234375" y="-63" width="230.046875" height="126"></rect><g class="label" style="color:#1B5E20 !important" transform="translate(-85.0234375, -48)"><rect></rect><foreignObject width="170.046875" height="96"><div style="color: rgb(27, 94, 32) !important; display: table-cell; white-space: nowrap; line-height: 1.5; max-width: 200px; text-align: center;" xmlns="http://www.w3.org/1999/xhtml"><span style="color:#1B5E20 !important" class="nodeLabel"><p>Export Worker<br/>───────────────<br/>K8s Deployment<br/>KEDA-scaled (DB poll)</p></span></div></foreignObject></g></g><g class="node default service" id="flowchart-Instance1-2" transform="translate(728.65625, 884.5)"><rect class="basic label-container" style="fill:#E8F5E9 !important;stroke:#2E7D32 !important;stroke-width:2px !important" x="-115.0234375" y="-63" width="230.046875" height="126"></rect><g class="label" style="color:#1B5E20 !important" transform="translate(-85.0234375, -48)"><rect></rect><foreignObject width="170.046875" height="96"><div style="color: rgb(27, 94, 32) !important; display: table-cell; white-space: nowrap; line-height: 1.5; max-width: 200px; text-align: center;" xmlns="http://www.w3.org/1999/xhtml"><span style="color:#1B5E20 !important" class="nodeLabel"><p>Graph Instance Pod<br/>───────────────<br/>Graph Wrapper<br/>FastAPI + Embedded DB</p></span></div></foreignObject></g></g><g class="node default service" id="flowchart-Instance2-3" transform="translate(262.984375, 884.5)"><rect class="basic label-container" style="fill:#E8F5E9 !important;stroke:#2E7D32 !important;stroke-width:2px !important" x="-115.0234375" y="-63" width="230.046875" height="126"></rect><g class="label" style="color:#1B5E20 !important" transform="translate(-85.0234375, -48)"><rect></rect><foreignObject width="170.046875" height="96"><div style="color: rgb(27, 94, 32) !important; display: table-cell; white-space: nowrap; line-height: 1.5; max-width: 200px; text-align: center;" xmlns="http://www.w3.org/1999/xhtml"><span style="color:#1B5E20 !important" class="nodeLabel"><p>Graph Instance Pod<br/>───────────────<br/>Graph Wrapper<br/>FastAPI + Embedded DB</p></span></div></foreignObject></g></g><g class="node default service" id="flowchart-InstanceN-4" transform="translate(495.8203125, 884.5)"><rect class="basic label-container" style="fill:#E8F5E9 !important;stroke:#2E7D32 !important;stroke-width:2px !important" x="-87.8125" y="-27" width="175.625" height="54"></rect><g class="label" style="color:#1B5E20 !important" transform="translate(-57.8125, -12)"><rect></rect><foreignObject width="115.625" height="24"><div style="color: rgb(27, 94, 32) !important; display: table-cell; white-space: nowrap; line-height: 1.5; max-width: 200px; text-align: center;" xmlns="http://www.w3.org/1999/xhtml"><span style="color:#1B5E20 !important" class="nodeLabel"><p>... (N instances)</p></span></div></foreignObject></g></g><g class="node default service" id="flowchart-ControlPlane-1" transform="translate(624.9739583333333, 608.5)"><rect class="basic label-container" style="fill:#E8F5E9 !important;stroke:#2E7D32 !important;stroke-width:2px !important" x="-115.0234375" y="-63" width="230.046875" height="126"></rect><g class="label" style="color:#1B5E20 !important" transform="translate(-85.0234375, -48)"><rect></rect><foreignObject width="170.046875" height="96"><div style="color: rgb(27, 94, 32) !important; display: table-cell; white-space: nowrap; line-height: 1.5; max-width: 200px; text-align: center;" xmlns="http://www.w3.org/1999/xhtml"><span style="color:#1B5E20 !important" class="nodeLabel"><p>Control Plane API<br/>───────────────<br/>Python FastAPI<br/>REST API + BG Jobs</p></span></div></foreignObject></g></g><g class="node default user" id="flowchart-SDK-0" transform="translate(686.7760416666665, 51)"><rect class="basic label-container" style="fill:#F3E5F5 !important;stroke:#7B1FA2 !important;stroke-width:2px !important" x="-70.3828125" y="-39" width="140.765625" height="78"></rect><g class="label" style="color:#4A148C !important" transform="translate(-40.3828125, -24)"><rect></rect><foreignObject width="80.765625" height="48"><div style="color: rgb(74, 20, 140) !important; display: table-cell; white-space: nowrap; line-height: 1.5; max-width: 200px; text-align: center;" xmlns="http://www.w3.org/1999/xhtml"><span style="color:#4A148C !important" class="nodeLabel"><p>Python SDK<br/>(Jupyter)</p></span></div></foreignObject></g></g><g class="node default data" id="flowchart-CloudSQL-6" transform="translate(300.5078125, 1161)"><rect class="basic label-container" style="fill:#FFF8E1 !important;stroke:#F57F17 !important;stroke-width:2px !important" x="-69.5859375" y="-39" width="139.171875" height="78"></rect><g class="label" style="color:#E65100 !important" transform="translate(-39.5859375, -24)"><rect></rect><foreignObject width="79.171875" height="48"><div style="color: rgb(230, 81, 0) !important; display: table-cell; white-space: nowrap; line-height: 1.5; max-width: 200px; text-align: center;" xmlns="http://www.w3.org/1999/xhtml"><span style="color:#E65100 !important" class="nodeLabel"><p>Cloud SQL<br/>PostgreSQL</p></span></div></foreignObject></g></g><g class="node default data" id="flowchart-GCS-7" transform="translate(446.59375, 1333)"><rect class="basic label-container" style="fill:#FFF8E1 !important;stroke:#F57F17 !important;stroke-width:2px !important" x="-76.6171875" y="-39" width="153.234375" height="78"></rect><g class="label" style="color:#E65100 !important" transform="translate(-46.6171875, -24)"><rect></rect><foreignObject width="93.234375" height="48"><div style="color: rgb(230, 81, 0) !important; display: table-cell; white-space: nowrap; line-height: 1.5; max-width: 200px; text-align: center;" xmlns="http://www.w3.org/1999/xhtml"><span style="color:#E65100 !important" class="nodeLabel"><p>GCS Bucket<br/>Parquet Files</p></span></div></foreignObject></g></g><g class="node default external" id="flowchart-Starburst-8" transform="translate(103.9609375, 1161)"><rect class="basic label-container" style="fill:#ECEFF1 !important;stroke:#455A64 !important;stroke-width:2px !important" x="-91.9609375" y="-39" width="183.921875" height="78"></rect><g class="label" style="color:#263238 !important" transform="translate(-61.9609375, -24)"><rect></rect><foreignObject width="123.921875" height="48"><div style="color: rgb(38, 50, 56) !important; display: table-cell; white-space: nowrap; line-height: 1.5; max-width: 200px; text-align: center;" xmlns="http://www.w3.org/1999/xhtml"><span style="color:#263238 !important" class="nodeLabel"><p>Starburst<br/>(Resource Group)</p></span></div></foreignObject></g></g></g><g class="edges edgePaths"><path d="M663.315,90L663.315,105.667C663.315,121.333,663.315,152.667,663.315,220.833C663.315,289,663.315,394,663.315,453.583C663.315,513.167,663.315,527.333,663.315,534.417L663.315,541.5" id="L_SDK_ControlPlane_0_0" class="edge-thickness-normal edge-pattern-solid edge-thickness-normal edge-pattern-solid flowchart-link" style=";" data-edge="true" data-et="edge" data-id="L_SDK_ControlPlane_0_0" data-points="W3sieCI6NjYzLjMxNTEwNDE2NjY2NjUsInkiOjkwfSx7IngiOjY2My4zMTUxMDQxNjY2NjY1LCJ5IjoxODR9LHsieCI6NjYzLjMxNTEwNDE2NjY2NjUsInkiOjQ5OX0seyJ4Ijo2NjMuMzE1MTA0MTY2NjY2NSwieSI6NTQ1LjV9XQ==" marker-end="url(#mermaid-1770215480507_flowchart-v2-pointEnd)"></path><path d="M710.237,90L710.237,92.083C710.237,94.167,710.237,98.333,710.599,100.888C710.961,103.443,711.685,104.386,712.518,105.219C713.351,106.052,714.294,106.776,715.807,107.138C717.32,107.5,719.404,107.5,720.917,107.862C722.43,108.224,723.373,108.948,724.206,109.781C725.039,110.614,725.763,111.557,726.125,120.195C726.487,128.833,726.487,145.167,726.849,153.805C727.211,162.443,727.935,163.386,728.768,164.219C729.601,165.052,730.544,165.776,736.101,166.138C741.657,166.5,751.827,166.5,757.384,166.862C762.94,167.224,763.883,167.948,764.716,168.781C765.55,169.614,766.274,170.557,766.635,173.112C766.997,175.667,766.997,179.833,766.997,280.417C766.997,381,766.997,578,766.997,683.583C766.997,789.167,766.997,803.333,766.997,810.417L766.997,817.5" id="L_SDK_Instance1_0_0" class="edge-thickness-normal edge-pattern-solid edge-thickness-normal edge-pattern-solid flowchart-link" style=";" data-edge="true" data-et="edge" data-id="L_SDK_Instance1_0_0" data-points="W3sieCI6NzEwLjIzNjk3OTE2NjY2NjUsInkiOjkwfSx7IngiOjcxMC4yMzY5NzkxNjY2NjY1LCJ5IjoxMDcuNX0seyJ4Ijo3MjYuNDg2OTc5MTY2NjY2NSwieSI6MTA3LjV9LHsieCI6NzI2LjQ4Njk3OTE2NjY2NjUsInkiOjE2Ni41fSx7IngiOjc2Ni45OTczOTU4MzMzMzMzLCJ5IjoxNjYuNX0seyJ4Ijo3NjYuOTk3Mzk1ODMzMzMzMywieSI6MTg0fSx7IngiOjc2Ni45OTczOTU4MzMzMzMzLCJ5Ijo3NzV9LHsieCI6NzY2Ljk5NzM5NTgzMzMzMzMsInkiOjgyMS41fV0=" marker-end="url(#mermaid-1770215480507_flowchart-v2-pointEnd)"></path><path d="M586.633,671.5L586.633,674.75C586.633,678,586.633,684.5,586.633,689.417C586.633,694.333,586.633,697.667,586.271,699.805C585.909,701.943,585.185,702.886,584.352,703.719C583.518,704.552,582.576,705.276,505.992,705.638C429.409,706,277.185,706,200.602,706.362C124.018,706.724,123.075,707.448,122.242,708.281C121.409,709.114,120.685,710.057,120.323,756.445C119.961,802.833,119.961,894.667,119.961,945.583C119.961,996.5,119.961,1006.5,120.323,1011.971C120.685,1017.443,121.409,1018.386,122.242,1019.219C123.075,1020.052,124.018,1020.776,152.914,1021.138C181.81,1021.5,238.659,1021.5,267.555,1021.862C296.451,1022.224,297.393,1022.948,298.227,1023.781C299.06,1024.614,299.784,1025.557,300.146,1041.279C300.508,1057,300.508,1087.5,300.508,1102.75L300.508,1118" id="L_ControlPlane_CloudSQL_0_0" class="edge-thickness-normal edge-pattern-solid edge-thickness-normal edge-pattern-solid flowchart-link" style=";" data-edge="true" data-et="edge" data-id="L_ControlPlane_CloudSQL_0_0" data-points="W3sieCI6NTg2LjYzMjgxMjQ5OTk5OTksInkiOjY3MS41fSx7IngiOjU4Ni42MzI4MTI0OTk5OTk5LCJ5Ijo2OTF9LHsieCI6NTg2LjYzMjgxMjQ5OTk5OTksInkiOjcwNn0seyJ4IjoxMTkuOTYwOTM3NSwieSI6NzA2fSx7IngiOjExOS45NjA5Mzc1LCJ5Ijo5ODYuNX0seyJ4IjoxMTkuOTYwOTM3NSwieSI6MTAyMS41fSx7IngiOjMwMC41MDc4MTI1LCJ5IjoxMDIxLjV9LHsieCI6MzAwLjUwNzgxMjUsInkiOjExMjJ9XQ==" marker-end="url(#mermaid-1770215480507_flowchart-v2-pointEnd)"></path><path d="M663.315,671.5L663.315,674.75C663.315,678,663.315,684.5,663.315,698.417C663.315,712.333,663.315,733.667,663.677,744.805C664.039,755.943,664.763,756.886,665.596,757.719C666.429,758.552,667.372,759.276,670.677,759.638C673.982,760,679.648,760,682.953,760.362C686.258,760.724,687.201,761.448,688.034,762.281C688.867,763.114,689.591,764.057,689.953,766.195C690.315,768.333,690.315,771.667,690.315,780.417C690.315,789.167,690.315,803.333,690.315,810.417L690.315,817.5" id="L_ControlPlane_Instance1_0_0" class="edge-thickness-normal edge-pattern-solid edge-thickness-normal edge-pattern-solid flowchart-link" style=";" data-edge="true" data-et="edge" data-id="L_ControlPlane_Instance1_0_0" data-points="W3sieCI6NjYzLjMxNTEwNDE2NjY2NjUsInkiOjY3MS41fSx7IngiOjY2My4zMTUxMDQxNjY2NjY1LCJ5Ijo2OTF9LHsieCI6NjYzLjMxNTEwNDE2NjY2NjUsInkiOjc2MH0seyJ4Ijo2OTAuMzE1MTA0MTY2NjY2NiwieSI6NzYwfSx7IngiOjY5MC4zMTUxMDQxNjY2NjY2LCJ5Ijo3NzV9LHsieCI6NjkwLjMxNTEwNDE2NjY2NjYsInkiOjgyMS41fV0=" marker-end="url(#mermaid-1770215480507_flowchart-v2-pointEnd)"></path><path d="M559.633,395.5L559.633,398.75C559.633,402,559.633,408.5,559.633,422.417C559.633,436.333,559.633,457.667,559.995,468.805C560.357,479.943,561.081,480.886,561.914,481.719C562.747,482.552,563.69,483.276,566.995,483.638C570.299,484,575.966,484,579.271,484.362C582.576,484.724,583.518,485.448,584.352,486.281C585.185,487.114,585.909,488.057,586.271,490.195C586.633,492.333,586.633,495.667,586.633,504.417C586.633,513.167,586.633,527.333,586.633,534.417L586.633,541.5" id="L_ExportWorker_ControlPlane_0_0" class="edge-thickness-normal edge-pattern-solid edge-thickness-normal edge-pattern-solid flowchart-link" style=";" data-edge="true" data-et="edge" data-id="L_ExportWorker_ControlPlane_0_0" data-points="W3sieCI6NTU5LjYzMjgxMjQ5OTk5OTgsInkiOjM5NS41fSx7IngiOjU1OS42MzI4MTI0OTk5OTk4LCJ5Ijo0MTV9LHsieCI6NTU5LjYzMjgxMjQ5OTk5OTgsInkiOjQ4NH0seyJ4Ijo1ODYuNjMyODEyNDk5OTk5OSwieSI6NDg0fSx7IngiOjU4Ni42MzI4MTI0OTk5OTk5LCJ5Ijo0OTl9LHsieCI6NTg2LjYzMjgxMjQ5OTk5OTksInkiOjU0NS41fV0=" marker-end="url(#mermaid-1770215480507_flowchart-v2-pointEnd)"></path><path d="M482.951,395.5L482.951,398.75C482.951,402,482.951,408.5,482.951,413.417C482.951,418.333,482.951,421.667,482.589,423.805C482.227,425.943,481.503,426.886,480.669,427.719C479.836,428.552,478.893,429.276,416.924,429.638C354.954,430,231.957,430,169.988,430.362C108.018,430.724,107.075,431.448,106.242,432.281C105.409,433.114,104.685,434.057,104.323,526.445C103.961,618.833,103.961,802.667,103.961,916.5C103.961,1030.333,103.961,1074.167,103.961,1096.083L103.961,1118" id="L_ExportWorker_Starburst_0_0" class="edge-thickness-normal edge-pattern-solid edge-thickness-normal edge-pattern-solid flowchart-link" style=";" data-edge="true" data-et="edge" data-id="L_ExportWorker_Starburst_0_0" data-points="W3sieCI6NDgyLjk1MDUyMDgzMzMzMzE0LCJ5IjozOTUuNX0seyJ4Ijo0ODIuOTUwNTIwODMzMzMzMTQsInkiOjQxNX0seyJ4Ijo0ODIuOTUwNTIwODMzMzMzMTQsInkiOjQzMH0seyJ4IjoxMDMuOTYwOTM3NSwieSI6NDMwfSx7IngiOjEwMy45NjA5Mzc1LCJ5Ijo5ODYuNX0seyJ4IjoxMDMuOTYwOTM3NSwieSI6MTEyMn1d" marker-end="url(#mermaid-1770215480507_flowchart-v2-pointEnd)"></path><path d="M103.961,1200L103.961,1211.917C103.961,1223.833,103.961,1247.667,104.323,1260.055C104.685,1272.443,105.409,1273.386,106.242,1274.219C107.075,1275.052,108.018,1275.776,157.544,1276.138C207.069,1276.5,305.177,1276.5,354.703,1276.862C404.228,1277.224,405.171,1277.948,406.004,1278.781C406.837,1279.614,407.561,1280.557,407.923,1282.445C408.285,1284.333,408.285,1287.167,408.285,1288.583L408.285,1290" id="L_Starburst_GCS_0_0" class="edge-thickness-normal edge-pattern-solid edge-thickness-normal edge-pattern-solid flowchart-link" style=";" data-edge="true" data-et="edge" data-id="L_Starburst_GCS_0_0" data-points="W3sieCI6MTAzLjk2MDkzNzUsInkiOjEyMDB9LHsieCI6MTAzLjk2MDkzNzUsInkiOjEyNzYuNX0seyJ4Ijo0MDguMjg1MTU2MjUsInkiOjEyNzYuNX0seyJ4Ijo0MDguMjg1MTU2MjUsInkiOjEyOTR9XQ==" marker-end="url(#mermaid-1770215480507_flowchart-v2-pointEnd)"></path><path d="M728.656,947.5L728.656,950.75C728.656,954,728.656,960.5,728.656,967C728.656,973.5,728.656,980,728.656,996C728.656,1012,728.656,1037.5,728.656,1080.917C728.656,1124.333,728.656,1185.667,728.656,1220.417C728.656,1255.167,728.656,1263.333,728.294,1267.888C727.932,1272.443,727.209,1273.386,726.375,1274.219C725.542,1275.052,724.599,1275.776,685.169,1276.138C645.738,1276.5,567.82,1276.5,528.39,1276.862C488.96,1277.224,488.017,1277.948,487.183,1278.781C486.35,1279.614,485.626,1280.557,485.264,1282.445C484.902,1284.333,484.902,1287.167,484.902,1288.583L484.902,1290" id="L_Instance1_GCS_0_0" class="edge-thickness-normal edge-pattern-solid edge-thickness-normal edge-pattern-solid flowchart-link" style=";" data-edge="true" data-et="edge" data-id="L_Instance1_GCS_0_0" data-points="W3sieCI6NzI4LjY1NjI1LCJ5Ijo5NDcuNX0seyJ4Ijo3MjguNjU2MjUsInkiOjk2N30seyJ4Ijo3MjguNjU2MjUsInkiOjk4Ni41fSx7IngiOjcyOC42NTYyNSwieSI6MTA2M30seyJ4Ijo3MjguNjU2MjUsInkiOjEyNDd9LHsieCI6NzI4LjY1NjI1LCJ5IjoxMjc2LjV9LHsieCI6NDg0LjkwMjM0Mzc1LCJ5IjoxMjc2LjV9LHsieCI6NDg0LjkwMjM0Mzc1LCJ5IjoxMjk0fV0=" marker-end="url(#mermaid-1770215480507_flowchart-v2-pointEnd)"></path><path d="M262.984,947.5L262.984,950.75C262.984,954,262.984,960.5,262.984,967C262.984,973.5,262.984,980,262.984,985.333C262.984,990.667,262.984,994.833,263.346,997.388C263.708,999.943,264.432,1000.886,265.265,1001.719C266.099,1002.552,267.042,1003.276,296.448,1003.638C325.854,1004,383.724,1004,413.13,1004.362C442.537,1004.724,443.479,1005.448,444.313,1006.281C445.146,1007.114,445.87,1008.057,446.232,1017.529C446.594,1027,446.594,1045,446.594,1084.667C446.594,1124.333,446.594,1185.667,446.594,1223.5C446.594,1261.333,446.594,1275.667,446.594,1282.833L446.594,1290" id="L_Instance2_GCS_0_0" class="edge-thickness-normal edge-pattern-solid edge-thickness-normal edge-pattern-solid flowchart-link" style=";" data-edge="true" data-et="edge" data-id="L_Instance2_GCS_0_0" data-points="W3sieCI6MjYyLjk4NDM3NSwieSI6OTQ3LjV9LHsieCI6MjYyLjk4NDM3NSwieSI6OTY3fSx7IngiOjI2Mi45ODQzNzUsInkiOjk4Ni41fSx7IngiOjI2Mi45ODQzNzUsInkiOjEwMDR9LHsieCI6NDQ2LjU5Mzc1LCJ5IjoxMDA0fSx7IngiOjQ0Ni41OTM3NSwieSI6MTA2M30seyJ4Ijo0NDYuNTkzNzUsInkiOjEyNDd9LHsieCI6NDQ2LjU5Mzc1LCJ5IjoxMjk0fV0=" marker-end="url(#mermaid-1770215480507_flowchart-v2-pointEnd)"></path></g><g class="edgeLabels"><g class="edgeLabel" transform="translate(663.1510416666665, 137)"><g class="label" data-id="L_SDK_ControlPlane_0_0" transform="translate(-22.8359375, -12)"><foreignObject width="45.671875" height="24"><div xmlns="http://www.w3.org/1999/xhtml" class="labelBkg" style="display: table-cell; white-space: nowrap; line-height: 1.5; max-width: 200px; text-align: center;"><span class="edgeLabel"><p>HTTPS</p></span></div></foreignObject></g></g><g class="edgeLabel" transform="translate(726.3229166666665, 137)"><g class="label" data-id="L_SDK_Instance1_0_0" transform="translate(-22.8359375, -12)"><foreignObject width="45.671875" height="24"><div xmlns="http://www.w3.org/1999/xhtml" class="labelBkg" style="display: table-cell; white-space: nowrap; line-height: 1.5; max-width: 200px; text-align: center;"><span class="edgeLabel"><p>HTTPS</p></span></div></foreignObject></g></g><g class="edgeLabel" transform="translate(300.3125, 1063)"><g class="label" data-id="L_ControlPlane_CloudSQL_0_0" transform="translate(-13.3046875, -12)"><foreignObject width="26.609375" height="24"><div xmlns="http://www.w3.org/1999/xhtml" class="labelBkg" style="display: table-cell; white-space: nowrap; line-height: 1.5; max-width: 200px; text-align: center;"><span class="edgeLabel"><p>SQL</p></span></div></foreignObject></g></g><g class="edgeLabel" transform="translate(663.0338541666665, 733)"><g class="label" data-id="L_ControlPlane_Instance1_0_0" transform="translate(-51.71875, -12)"><foreignObject width="103.4375" height="24"><div xmlns="http://www.w3.org/1999/xhtml" class="labelBkg" style="display: table-cell; white-space: nowrap; line-height: 1.5; max-width: 200px; text-align: center;"><span class="edgeLabel"><p>Create/Delete</p></span></div></foreignObject></g></g><g class="edgeLabel" transform="translate(559.5624999999998, 457)"><g class="label" data-id="L_ExportWorker_ControlPlane_0_0" transform="translate(-30.4296875, -12)"><foreignObject width="60.859375" height="24"><div xmlns="http://www.w3.org/1999/xhtml" class="labelBkg" style="display: table-cell; white-space: nowrap; line-height: 1.5; max-width: 200px; text-align: center;"><span class="edgeLabel"><p>Poll jobs</p></span></div></foreignObject></g></g><g class="edgeLabel" transform="translate(103.84375, 1063)"><g class="label" data-id="L_ExportWorker_Starburst_0_0" transform="translate(-46.8828125, -24)"><foreignObject width="93.765625" height="48"><div xmlns="http://www.w3.org/1999/xhtml" class="labelBkg" style="display: table-cell; white-space: nowrap; line-height: 1.5; max-width: 200px; text-align: center;"><span class="edgeLabel"><p>Submit + Poll<br/>(client_tags)</p></span></div></foreignObject></g></g><g class="edgeLabel" transform="translate(103.4765625, 1247)"><g class="label" data-id="L_Starburst_GCS_0_0" transform="translate(-49.515625, -12)"><foreignObject width="99.03125" height="24"><div xmlns="http://www.w3.org/1999/xhtml" class="labelBkg" style="display: table-cell; white-space: nowrap; line-height: 1.5; max-width: 200px; text-align: center;"><span class="edgeLabel"><p>Write Parquet</p></span></div></foreignObject></g></g><g class="edgeLabel" transform="translate(728.546875, 1161)"><g class="label" data-id="L_Instance1_GCS_0_0" transform="translate(-41.390625, -12)"><foreignObject width="82.78125" height="24"><div xmlns="http://www.w3.org/1999/xhtml" class="labelBkg" style="display: table-cell; white-space: nowrap; line-height: 1.5; max-width: 200px; text-align: center;"><span class="edgeLabel"><p>COPY FROM</p></span></div></foreignObject></g></g><g class="edgeLabel" transform="translate(446.484375, 1161)"><g class="label" data-id="L_Instance2_GCS_0_0" transform="translate(-41.390625, -12)"><foreignObject width="82.78125" height="24"><div xmlns="http://www.w3.org/1999/xhtml" class="labelBkg" style="display: table-cell; white-space: nowrap; line-height: 1.5; max-width: 200px; text-align: center;"><span class="edgeLabel"><p>COPY FROM</p></span></div></foreignObject></g></g></g></svg>