<svg id="mermaid-1770215532112" width="100%" xmlns="http://www.w3.org/2000/svg" xmlns:xlink="http://www.w3.org/1999/xlink" class="flowchart" style="max-width: 1309px;" viewBox="-8 -8 1309 1364" role="graphics-document document" aria-roledescription="flowchart-v2" aria-describedby="chart-desc-mermaid-1770215532112" aria-labelledby="chart-title-mermaid-1770215532112" height="auto"><title id="chart-title-mermaid-1770215532112">Graph OLAP SDK Architecture</title><desc id="chart-desc-mermaid-1770215532112">Shows SDK components from GraphOLAPClient through resource managers to Control Plane and Wrapper APIs</desc><style>#mermaid-1770215532112{font-family:"trebuchet ms",verdana,arial,sans-serif;font-size:16px;fill:#333;}@keyframes edge-animation-frame{from{stroke-dashoffset:0;}}@keyframes dash{to{stroke-dashoffset:0;}}#mermaid-1770215532112 .edge-animation-slow{stroke-dasharray:9,5!important;stroke-dashoffset:900;animation:dash 50s linear infinite;stroke-linecap:round;}#mermaid-1770215532112 .edge-animation-fast{stroke-dasharray:9,5!important;stroke-dashoffset:900;animation:dash 20s linear infinite;stroke-linecap:round;}#mermaid-1770215532112 .error-icon{fill:#552222;}#mermaid-1770215532112 .error-text{fill:#552222;stroke:#552222;}#mermaid-1770215532112 .edge-thickness-normal{stroke-width:1px;}#mermaid-1770215532112 .edge-thickness-thick{stroke-width:3.5px;}#mermaid-1770215532112 .edge-pattern-solid{stroke-dasharray:0;}#mermaid-1770215532112 .edge-thickness-invisible{stroke-width:0;fill:none;}#mermaid-1770215532112 .edge-pattern-dashed{stroke-dasharray:3;}#mermaid-1770215532112 .edge-pattern-dotted{stroke-dasharray:2;}#mermaid-1770215532112 .marker{fill:#333333;stroke:#333333;}#mermaid-1770215532112 .marker.cross{stroke:#333333;}#mermaid-1770215532112 svg{font-family:"trebuchet ms",verdana,arial,sans-serif;font-size:16px;}#mermaid-1770215532112 p{margin:0;}#mermaid-1770215532112 .label{font-family:"trebuchet ms",verdana,arial,sans-serif;color:#333;}#mermaid-1770215532112 .cluster-label text{fill:#333;}#mermaid-1770215532112 .cluster-label span{color:#333;}#mermaid-1770215532112 .cluster-label span p{background-color:transparent;}#mermaid-1770215532112 .label text,#mermaid-1770215532112 span{fill:#333;color:#333;}#mermaid-1770215532112 .node rect,#mermaid-1770215532112 .node circle,#mermaid-1770215532112 .node ellipse,#mermaid-1770215532112 .node polygon,#mermaid-1770215532112 .node path{fill:#ECECFF;stroke:#9370DB;stroke-width:1px;}#mermaid-1770215532112 .rough-node .label text,#mermaid-1770215532112 .node .label text,#mermaid-1770215532112 .image-shape .label,#mermaid-1770215532112 .icon-shape .label{text-anchor:middle;}#mermaid-1770215532112 .node .katex path{fill:#000;stroke:#000;stroke-width:1px;}#mermaid-1770215532112 .rough-node .label,#mermaid-1770215532112 .node .label,#mermaid-1770215532112 .image-shape .label,#mermaid-1770215532112 .icon-shape .label{text-align:center;}#mermaid-1770215532112 .node.clickable{cursor:pointer;}#mermaid-1770215532112 .root .anchor path{fill:#333333!important;stroke-width:0;stroke:#333333;}#mermaid-1770215532112 .arrowheadPath{fill:#333333;}#mermaid-1770215532112 .edgePath .path{stroke:#333333;stroke-width:2.0px;}#mermaid-1770215532112 .flowchart-link{stroke:#333333;fill:none;}#mermaid-1770215532112 .edgeLabel{background-color:rgba(232,232,232, 0.8);text-align:center;}#mermaid-1770215532112 .edgeLabel p{background-color:rgba(232,232,232, 0.8);}#mermaid-1770215532112 .edgeLabel rect{opacity:0.5;background-color:rgba(232,232,232, 0.8);fill:rgba(232,232,232, 0.8);}#mermaid-1770215532112 .labelBkg{background-color:rgba(232, 232, 232, 0.5);}#mermaid-1770215532112 .cluster rect{fill:#ffffde;stroke:#aaaa33;stroke-width:1px;}#mermaid-1770215532112 .cluster text{fill:#333;}#mermaid-1770215532112 .cluster span{color:#333;}#mermaid-1770215532112 div.mermaidTooltip{position:absolute;text-align:center;max-width:200px;padding:2px;font-family:"trebuchet ms",verdana,arial,sans-serif;font-size:12px;background:hsl(80, 100%, 96.2745098039%);border:1px solid #aaaa33;border-radius:2px;pointer-events:none;z-index:100;}#mermaid-1770215532112 .flowchartTitleText{text-anchor:middle;font-size:18px;fill:#333;}#mermaid-1770215532112 rect.text{fill:none;stroke-width:0;}#mermaid-1770215532112 .icon-shape,#mermaid-1770215532112 .image-shape{background-color:rgba(232,232,232, 0.8);text-align:center;}#mermaid-1770215532112 .icon-shape p,#mermaid-1770215532112 .image-shape p{background-color:rgba(232,232,232, 0.8);padding:2px;}#mermaid-1770215532112 .icon-shape rect,#mermaid-1770215532112 .image-shape rect{opacity:0.5;background-color:rgba(232,232,232, 0.8);fill:rgba(232,232,232, 0.8);}#mermaid-1770215532112 .label-icon{display:inline-block;height:1em;overflow:visible;vertical-align:-0.125em;}#mermaid-1770215532112 .node .label-icon path{fill:currentColor;stroke:revert;stroke-width:revert;}#mermaid-1770215532112 :root{--mermaid-font-family:"trebuchet ms",verdana,arial,sans-serif;}#mermaid-1770215532112 .user&gt;*{fill:#F3E5F5!important;stroke:#7B1FA2!important;stroke-width:2px!important;color:#4A148C!important;}#mermaid-1770215532112 .user span{fill:#F3E5F5!important;stroke:#7B1FA2!important;stroke-width:2px!important;color:#4A148C!important;}#mermaid-1770215532112 .user tspan{fill:#4A148C!important;}#mermaid-1770215532112 .client&gt;*{fill:#E1F5FE!important;stroke:#0277BD!important;stroke-width:2px!important;color:#01579B!important;}#mermaid-1770215532112 .client span{fill:#E1F5FE!important;stroke:#0277BD!important;stroke-width:2px!important;color:#01579B!important;}#mermaid-1770215532112 .client tspan{fill:#01579B!important;}#mermaid-1770215532112 .resource&gt;*{fill:#E8F5E9!important;stroke:#2E7D32!important;stroke-width:2px!important;color:#1B5E20!important;}#mermaid-1770215532112 .resource span{fill:#E8F5E9!important;stroke:#2E7D32!important;stroke-width:2px!important;color:#1B5E20!important;}#mermaid-1770215532112 .resource tspan{fill:#1B5E20!important;}#mermaid-1770215532112 .http&gt;*{fill:#FFF8E1!important;stroke:#F57F17!important;stroke-width:2px!important;color:#E65100!important;}#mermaid-1770215532112 .http span{fill:#FFF8E1!important;stroke:#F57F17!important;stroke-width:2px!important;color:#E65100!important;}#mermaid-1770215532112 .http tspan{fill:#E65100!important;}#mermaid-1770215532112 .api&gt;*{fill:#E3F2FD!important;stroke:#1565C0!important;stroke-width:2px!important;color:#0D47A1!important;}#mermaid-1770215532112 .api span{fill:#E3F2FD!important;stroke:#1565C0!important;stroke-width:2px!important;color:#0D47A1!important;}#mermaid-1770215532112 .api tspan{fill:#0D47A1!important;}#mermaid-1770215532112 .conn&gt;*{fill:#FCE4EC!important;stroke:#C2185B!important;stroke-width:2px!important;color:#880E4F!important;}#mermaid-1770215532112 .conn span{fill:#FCE4EC!important;stroke:#C2185B!important;stroke-width:2px!important;color:#880E4F!important;}#mermaid-1770215532112 .conn tspan{fill:#880E4F!important;}</style><g><marker id="mermaid-1770215532112_flowchart-v2-pointEnd" class="marker flowchart-v2" viewBox="0 0 10 10" refX="5" refY="5" markerUnits="userSpaceOnUse" markerWidth="8" markerHeight="8" orient="auto"><path d="M 0 0 L 10 5 L 0 10 z" class="arrowMarkerPath" style="stroke-width: 1; stroke-dasharray: 1, 0;"></path></marker><marker id="mermaid-1770215532112_flowchart-v2-pointStart" class="marker flowchart-v2" viewBox="0 0 10 10" refX="4.5" refY="5" markerUnits="userSpaceOnUse" markerWidth="8" markerHeight="8" orient="auto"><path d="M 0 5 L 10 10 L 10 0 z" class="arrowMarkerPath" style="stroke-width: 1; stroke-dasharray: 1, 0;"></path></marker><marker id="mermaid-1770215532112_flowchart-v2-circleEnd" class="marker flowchart-v2" viewBox="0 0 10 10" refX="11" refY="5" markerUnits="userSpaceOnUse" markerWidth="11" markerHeight="11" orient="auto"><circle cx="5" cy="5" r="5" class="arrowMarkerPath" style="stroke-width: 1; stroke-dasharray: 1, 0;"></circle></marker><marker id="mermaid-1770215532112_flowchart-v2-circleStart" class="marker flowchart-v2" viewBox="0 0 10 10" refX="-1" refY="5" markerUnits="userSpaceOnUse" markerWidth="11" markerHeight="11" orient="auto"><circle cx="5" cy="5" r="5" class="arrowMarkerPath" style="stroke-width: 1; stroke-dasharray: 1, 0;"></circle></marker><marker id="mermaid-1770215532112_flowchart-v2-crossEnd" class="marker cross flowchart-v2" viewBox="0 0 11 11" refX="12" refY="5.2" markerUnits="userSpaceOnUse" markerWidth="11" markerHeight="11" orient="auto"><path d="M 1,1 l 9,9 M 10,1 l -9,9" class="arrowMarkerPath" style="stroke-width: 2; stroke-dasharray: 1, 0;"></path></marker><marker id="mermaid-1770215532112_flowchart-v2-crossStart" class="marker cross flowchart-v2" viewBox="0 0 11 11" refX="-1" refY="5.2" markerUnits="userSpaceOnUse" markerWidth="11" markerHeight="11" orient="auto"><path d="M 1,1 l 9,9 M 10,1 l -9,9" class="arrowMarkerPath" style="stroke-width: 2; stroke-dasharray: 1, 0;"></path></marker></g><g class="subgraphs"><g class="subgraph"><g class="cluster" id="SDK" data-look="classic"><rect style="" x="12" y="132.5" width="1268.6875" height="1083"></rect><g class="cluster-label" transform="translate(546.34375, 132.5)"><foreignObject width="200" height="48"><div xmlns="http://www.w3.org/1999/xhtml" style="display: table; white-space: break-spaces; line-height: 1.5; max-width: 200px; text-align: center; width: 200px;"><span class="nodeLabel"><p>Python SDK (graph-olap-sdk)</p></span></div></foreignObject></g></g></g><g class="subgraph"><g class="cluster" id="Connection" data-look="classic"><rect style="" x="641.3158482142858" y="848" width="448.671875" height="348"></rect><g class="cluster-label" transform="translate(795.4799107142858, 848)"><foreignObject width="140.34375" height="24"><div xmlns="http://www.w3.org/1999/xhtml" style="display: table-cell; white-space: nowrap; line-height: 1.5; max-width: 200px; text-align: center;"><span class="nodeLabel"><p>InstanceConnection</p></span></div></foreignObject></g></g></g><g class="subgraph"><g class="cluster" id="Resources" data-look="classic"><rect style="" x="24" y="419" width="1244.6875" height="129"></rect><g class="cluster-label" transform="translate(578.71875, 419)"><foreignObject width="135.25" height="24"><div xmlns="http://www.w3.org/1999/xhtml" style="display: table-cell; white-space: nowrap; line-height: 1.5; max-width: 200px; text-align: center;"><span class="nodeLabel"><p>Resource Managers</p></span></div></foreignObject></g></g></g></g><g class="nodes"><g class="node default conn" id="flowchart-Conn-9" transform="translate(937.3822544642858, 950)"><rect class="basic label-container" style="fill:#FCE4EC !important;stroke:#C2185B !important;stroke-width:2px !important" x="-92.3515625" y="-63" width="184.703125" height="126"></rect><g class="label" style="color:#880E4F !important" transform="translate(-62.3515625, -48)"><rect></rect><foreignObject width="124.703125" height="96"><div style="color: rgb(136, 14, 79) !important; display: table-cell; white-space: nowrap; line-height: 1.5; max-width: 200px; text-align: center;" xmlns="http://www.w3.org/1999/xhtml"><span style="color:#880E4F !important" class="nodeLabel"><p>Connection<br/>───────────<br/>Cypher queries<br/>query_df()</p></span></div></foreignObject></g></g><g class="node default conn" id="flowchart-Algo-10" transform="translate(764.2220982142858, 1121)"><rect class="basic label-container" style="fill:#FCE4EC !important;stroke:#C2185B !important;stroke-width:2px !important" x="-94.90625" y="-63" width="189.8125" height="126"></rect><g class="label" style="color:#880E4F !important" transform="translate(-64.90625, -48)"><rect></rect><foreignObject width="129.8125" height="96"><div style="color: rgb(136, 14, 79) !important; display: table-cell; white-space: nowrap; line-height: 1.5; max-width: 200px; text-align: center;" xmlns="http://www.w3.org/1999/xhtml"><span style="color:#880E4F !important" class="nodeLabel"><p>AlgorithmManager<br/>───────────<br/>Native algorithms<br/>pagerank, louvain</p></span></div></foreignObject></g></g><g class="node default conn" id="flowchart-NX-11" transform="translate(983.5580357142858, 1121)"><rect class="basic label-container" style="fill:#FCE4EC !important;stroke:#C2185B !important;stroke-width:2px !important" x="-94.4296875" y="-63" width="188.859375" height="126"></rect><g class="label" style="color:#880E4F !important" transform="translate(-64.4296875, -48)"><rect></rect><foreignObject width="128.859375" height="96"><div style="color: rgb(136, 14, 79) !important; display: table-cell; white-space: nowrap; line-height: 1.5; max-width: 200px; text-align: center;" xmlns="http://www.w3.org/1999/xhtml"><span style="color:#880E4F !important" class="nodeLabel"><p>NetworkXManager<br/>───────────<br/>500+ algorithms<br/>client-side graphs</p></span></div></foreignObject></g></g><g class="node default resource" id="flowchart-Mappings-2" transform="translate(344.671875, 497)"><rect class="basic label-container" style="fill:#E8F5E9 !important;stroke:#2E7D32 !important;stroke-width:2px !important" x="-94.796875" y="-39" width="189.59375" height="78"></rect><g class="label" style="color:#1B5E20 !important" transform="translate(-64.796875, -24)"><rect></rect><foreignObject width="129.59375" height="48"><div style="color: rgb(27, 94, 32) !important; display: table-cell; white-space: nowrap; line-height: 1.5; max-width: 200px; text-align: center;" xmlns="http://www.w3.org/1999/xhtml"><span style="color:#1B5E20 !important" class="nodeLabel"><p>MappingResource<br/>CRUD + versioning</p></span></div></foreignObject></g></g><g class="node default resource" id="flowchart-Instances-3" transform="translate(127.9375, 497)"><rect class="basic label-container" style="fill:#E8F5E9 !important;stroke:#2E7D32 !important;stroke-width:2px !important" x="-91.9375" y="-39" width="183.875" height="78"></rect><g class="label" style="color:#1B5E20 !important" transform="translate(-61.9375, -24)"><rect></rect><foreignObject width="123.875" height="48"><div style="color: rgb(27, 94, 32) !important; display: table-cell; white-space: nowrap; line-height: 1.5; max-width: 200px; text-align: center;" xmlns="http://www.w3.org/1999/xhtml"><span style="color:#1B5E20 !important" class="nodeLabel"><p>InstanceResource<br/>lifecycle + CPU</p></span></div></foreignObject></g></g><g class="node default resource" id="flowchart-Schema-4" transform="translate(568.9765625, 497)"><rect class="basic label-container" style="fill:#E8F5E9 !important;stroke:#2E7D32 !important;stroke-width:2px !important" x="-99.5078125" y="-39" width="199.015625" height="78"></rect><g class="label" style="color:#1B5E20 !important" transform="translate(-69.5078125, -24)"><rect></rect><foreignObject width="139.015625" height="48"><div style="color: rgb(27, 94, 32) !important; display: table-cell; white-space: nowrap; line-height: 1.5; max-width: 200px; text-align: center;" xmlns="http://www.w3.org/1999/xhtml"><span style="color:#1B5E20 !important" class="nodeLabel"><p>SchemaResource<br/>Starburst metadata</p></span></div></foreignObject></g></g><g class="node default resource" id="flowchart-Ops-5" transform="translate(777.3515625, 497)"><rect class="basic label-container" style="fill:#E8F5E9 !important;stroke:#2E7D32 !important;stroke-width:2px !important" x="-78.8671875" y="-39" width="157.734375" height="78"></rect><g class="label" style="color:#1B5E20 !important" transform="translate(-48.8671875, -24)"><rect></rect><foreignObject width="97.734375" height="48"><div style="color: rgb(27, 94, 32) !important; display: table-cell; white-space: nowrap; line-height: 1.5; max-width: 200px; text-align: center;" xmlns="http://www.w3.org/1999/xhtml"><span style="color:#1B5E20 !important" class="nodeLabel"><p>OpsResource<br/>cluster config</p></span></div></foreignObject></g></g><g class="node default resource" id="flowchart-Admin-6" transform="translate(970.71875, 497)"><rect class="basic label-container" style="fill:#E8F5E9 !important;stroke:#2E7D32 !important;stroke-width:2px !important" x="-84.5" y="-39" width="169" height="78"></rect><g class="label" style="color:#1B5E20 !important" transform="translate(-54.5, -24)"><rect></rect><foreignObject width="109" height="48"><div style="color: rgb(27, 94, 32) !important; display: table-cell; white-space: nowrap; line-height: 1.5; max-width: 200px; text-align: center;" xmlns="http://www.w3.org/1999/xhtml"><span style="color:#1B5E20 !important" class="nodeLabel"><p>AdminResource<br/>bulk ops</p></span></div></foreignObject></g></g><g class="node default resource" id="flowchart-Health-7" transform="translate(1170.953125, 497)"><rect class="basic label-container" style="fill:#E8F5E9 !important;stroke:#2E7D32 !important;stroke-width:2px !important" x="-85.734375" y="-39" width="171.46875" height="78"></rect><g class="label" style="color:#1B5E20 !important" transform="translate(-55.734375, -24)"><rect></rect><foreignObject width="111.46875" height="48"><div style="color: rgb(27, 94, 32) !important; display: table-cell; white-space: nowrap; line-height: 1.5; max-width: 200px; text-align: center;" xmlns="http://www.w3.org/1999/xhtml"><span style="color:#1B5E20 !important" class="nodeLabel"><p>HealthResource<br/>health checks</p></span></div></foreignObject></g></g><g class="node default client" id="flowchart-Client-1" transform="translate(1089.0948660714287, 258.5)"><rect class="basic label-container" style="fill:#E1F5FE !important;stroke:#0277BD !important;stroke-width:2px !important" x="-114.6015625" y="-63" width="229.203125" height="126"></rect><g class="label" style="color:#01579B !important" transform="translate(-84.6015625, -48)"><rect></rect><foreignObject width="169.203125" height="96"><div style="color: rgb(1, 87, 155) !important; display: table-cell; white-space: nowrap; line-height: 1.5; max-width: 200px; text-align: center;" xmlns="http://www.w3.org/1999/xhtml"><span style="color:#01579B !important" class="nodeLabel"><p>GraphOLAPClient<br/>───────────<br/>Main entry point<br/>from_env() / direct init</p></span></div></foreignObject></g></g><g class="node default http" id="flowchart-HTTP-8" transform="translate(1104.9877232142858, 735.5)"><rect class="basic label-container" style="fill:#FFF8E1 !important;stroke:#F57F17 !important;stroke-width:2px !important" x="-92.3515625" y="-75" width="184.703125" height="150"></rect><g class="label" style="color:#E65100 !important" transform="translate(-62.3515625, -60)"><rect></rect><foreignObject width="124.703125" height="120"><div style="color: rgb(230, 81, 0) !important; display: table-cell; white-space: nowrap; line-height: 1.5; max-width: 200px; text-align: center;" xmlns="http://www.w3.org/1999/xhtml"><span style="color:#E65100 !important" class="nodeLabel"><p>HTTPClient<br/>───────────<br/>Retry logic<br/>Auth headers<br/>Error mapping</p></span></div></foreignObject></g></g><g class="node default user" id="flowchart-Jupyter-0" transform="translate(1089.0948660714287, 51)"><rect class="basic label-container" style="fill:#F3E5F5 !important;stroke:#7B1FA2 !important;stroke-width:2px !important" x="-93.65625" y="-39" width="187.3125" height="78"></rect><g class="label" style="color:#4A148C !important" transform="translate(-63.65625, -24)"><rect></rect><foreignObject width="127.3125" height="48"><div style="color: rgb(74, 20, 140) !important; display: table-cell; white-space: nowrap; line-height: 1.5; max-width: 200px; text-align: center;" xmlns="http://www.w3.org/1999/xhtml"><span style="color:#4A148C !important" class="nodeLabel"><p>Jupyter Notebook<br/>(Analyst)</p></span></div></foreignObject></g></g><g class="node default api" id="flowchart-CP-12" transform="translate(1104.9877232142858, 1297)"><rect class="basic label-container" style="fill:#E3F2FD !important;stroke:#1565C0 !important;stroke-width:2px !important" x="-91.9296875" y="-39" width="183.859375" height="78"></rect><g class="label" style="color:#0D47A1 !important" transform="translate(-61.9296875, -24)"><rect></rect><foreignObject width="123.859375" height="48"><div style="color: rgb(13, 71, 161) !important; display: table-cell; white-space: nowrap; line-height: 1.5; max-width: 200px; text-align: center;" xmlns="http://www.w3.org/1999/xhtml"><span style="color:#0D47A1 !important" class="nodeLabel"><p>Control Plane API<br/>/api/*</p></span></div></foreignObject></g></g><g class="node default api" id="flowchart-Wrapper-13" transform="translate(686.8809523809524, 1297)"><rect class="basic label-container" style="fill:#E3F2FD !important;stroke:#1565C0 !important;stroke-width:2px !important" x="-100.6953125" y="-39" width="201.390625" height="78"></rect><g class="label" style="color:#0D47A1 !important" transform="translate(-70.6953125, -24)"><rect></rect><foreignObject width="141.390625" height="48"><div style="color: rgb(13, 71, 161) !important; display: table-cell; white-space: nowrap; line-height: 1.5; max-width: 200px; text-align: center;" xmlns="http://www.w3.org/1999/xhtml"><span style="color:#0D47A1 !important" class="nodeLabel"><p>Wrapper Pod API<br/>/query, /algorithms</p></span></div></foreignObject></g></g></g><g class="edges edgePaths"><path d="M1089.095,90L1089.095,95.833C1089.095,101.667,1089.095,113.333,1089.095,130.25C1089.095,147.167,1089.095,169.333,1089.095,180.417L1089.095,191.5" id="L_Jupyter_Client_0_0" class="edge-thickness-normal edge-pattern-solid edge-thickness-normal edge-pattern-solid flowchart-link" style=";" data-edge="true" data-et="edge" data-id="L_Jupyter_Client_0_0" data-points="W3sieCI6MTA4OS4wOTQ4NjYwNzE0Mjg3LCJ5Ijo5MH0seyJ4IjoxMDg5LjA5NDg2NjA3MTQyODcsInkiOjEyNX0seyJ4IjoxMDg5LjA5NDg2NjA3MTQyODcsInkiOjE5NS41fV0=" marker-end="url(#mermaid-1770215532112_flowchart-v2-pointEnd)"></path><path d="M1039.98,321.5L1039.98,325.667C1039.98,329.833,1039.98,338.167,1039.618,342.805C1039.256,347.443,1038.532,348.386,1037.699,349.219C1036.866,350.052,1035.923,350.776,921.233,351.138C806.544,351.5,578.108,351.5,463.418,351.862C348.729,352.224,347.786,352.948,346.953,353.781C346.12,354.614,345.396,355.557,345.034,365.195C344.672,374.833,344.672,393.167,344.672,409.417C344.672,425.667,344.672,439.833,344.672,446.917L344.672,454" id="L_Client_Mappings_0_0" class="edge-thickness-normal edge-pattern-solid edge-thickness-normal edge-pattern-solid flowchart-link" style=";" data-edge="true" data-et="edge" data-id="L_Client_Mappings_0_0" data-points="W3sieCI6MTAzOS45Nzk5MTA3MTQyODU4LCJ5IjozMjEuNX0seyJ4IjoxMDM5Ljk3OTkxMDcxNDI4NTgsInkiOjM1MS41fSx7IngiOjM0NC42NzE4NzUsInkiOjM1MS41fSx7IngiOjM0NC42NzE4NzUsInkiOjQxMS41fSx7IngiOjM0NC42NzE4NzUsInkiOjQ1OH1d" marker-end="url(#mermaid-1770215532112_flowchart-v2-pointEnd)"></path><path d="M1007.237,321.5L1007.237,323.167C1007.237,324.833,1007.237,328.167,1006.875,330.305C1006.513,332.443,1005.789,333.386,1004.956,334.219C1004.122,335.052,1003.179,335.776,857.825,336.138C712.47,336.5,422.704,336.5,277.349,336.862C131.995,337.224,131.052,337.948,130.219,338.781C129.385,339.614,128.661,340.557,128.299,352.695C127.938,364.833,127.938,388.167,127.938,406.917C127.938,425.667,127.938,439.833,127.938,446.917L127.938,454" id="L_Client_Instances_0_0" class="edge-thickness-normal edge-pattern-solid edge-thickness-normal edge-pattern-solid flowchart-link" style=";" data-edge="true" data-et="edge" data-id="L_Client_Instances_0_0" data-points="W3sieCI6MTAwNy4yMzY2MDcxNDI4NTcyLCJ5IjozMjEuNX0seyJ4IjoxMDA3LjIzNjYwNzE0Mjg1NzIsInkiOjMzNi41fSx7IngiOjEyNy45Mzc1LCJ5IjozMzYuNX0seyJ4IjoxMjcuOTM3NSwieSI6NDExLjV9LHsieCI6MTI3LjkzNzUsInkiOjQ1OH1d" marker-end="url(#mermaid-1770215532112_flowchart-v2-pointEnd)"></path><path d="M1072.723,321.5L1072.723,328.167C1072.723,334.833,1072.723,348.167,1072.361,355.305C1071.999,362.443,1071.275,363.386,1070.442,364.219C1069.609,365.052,1068.666,365.776,985.904,366.138C903.141,366.5,738.559,366.5,655.796,366.862C573.034,367.224,572.091,367.948,571.258,368.781C570.424,369.614,569.7,370.557,569.338,377.695C568.977,384.833,568.977,398.167,568.977,411.917C568.977,425.667,568.977,439.833,568.977,446.917L568.977,454" id="L_Client_Schema_0_0" class="edge-thickness-normal edge-pattern-solid edge-thickness-normal edge-pattern-solid flowchart-link" style=";" data-edge="true" data-et="edge" data-id="L_Client_Schema_0_0" data-points="W3sieCI6MTA3Mi43MjMyMTQyODU3MTQ0LCJ5IjozMjEuNX0seyJ4IjoxMDcyLjcyMzIxNDI4NTcxNDQsInkiOjM2Ni41fSx7IngiOjU2OC45NzY1NjI1LCJ5IjozNjYuNX0seyJ4Ijo1NjguOTc2NTYyNSwieSI6NDExLjV9LHsieCI6NTY4Ljk3NjU2MjUsInkiOjQ1OH1d" marker-end="url(#mermaid-1770215532112_flowchart-v2-pointEnd)"></path><path d="M1105.467,321.5L1105.467,330.667C1105.467,339.833,1105.467,358.167,1105.105,367.805C1104.743,377.443,1104.019,378.386,1103.185,379.219C1102.352,380.052,1101.409,380.776,1047.919,381.138C994.428,381.5,888.39,381.5,834.899,381.862C781.409,382.224,780.466,382.948,779.633,383.781C778.799,384.614,778.075,385.557,777.713,390.195C777.352,394.833,777.352,403.167,777.352,414.417C777.352,425.667,777.352,439.833,777.352,446.917L777.352,454" id="L_Client_Ops_0_0" class="edge-thickness-normal edge-pattern-solid edge-thickness-normal edge-pattern-solid flowchart-link" style=";" data-edge="true" data-et="edge" data-id="L_Client_Ops_0_0" data-points="W3sieCI6MTEwNS40NjY1MTc4NTcxNDMsInkiOjMyMS41fSx7IngiOjExMDUuNDY2NTE3ODU3MTQzLCJ5IjozODEuNX0seyJ4Ijo3NzcuMzUxNTYyNSwieSI6MzgxLjV9LHsieCI6Nzc3LjM1MTU2MjUsInkiOjQxMS41fSx7IngiOjc3Ny4zNTE1NjI1LCJ5Ijo0NTh9XQ==" marker-end="url(#mermaid-1770215532112_flowchart-v2-pointEnd)"></path><path d="M1138.21,321.5L1138.21,333.167C1138.21,344.833,1138.21,368.167,1137.848,380.305C1137.486,392.443,1136.762,393.386,1135.929,394.219C1135.095,395.052,1134.153,395.776,1107.433,396.138C1080.713,396.5,1028.216,396.5,1001.496,396.862C974.776,397.224,973.833,397.948,973,398.781C972.166,399.614,971.443,400.557,971.081,402.695C970.719,404.833,970.719,408.167,970.719,416.917C970.719,425.667,970.719,439.833,970.719,446.917L970.719,454" id="L_Client_Admin_0_0" class="edge-thickness-normal edge-pattern-solid edge-thickness-normal edge-pattern-solid flowchart-link" style=";" data-edge="true" data-et="edge" data-id="L_Client_Admin_0_0" data-points="W3sieCI6MTEzOC4yMDk4MjE0Mjg1NzE2LCJ5IjozMjEuNX0seyJ4IjoxMTM4LjIwOTgyMTQyODU3MTYsInkiOjM5Ni41fSx7IngiOjk3MC43MTg3NSwieSI6Mzk2LjV9LHsieCI6OTcwLjcxODc1LCJ5Ijo0MTEuNX0seyJ4Ijo5NzAuNzE4NzUsInkiOjQ1OH1d" marker-end="url(#mermaid-1770215532112_flowchart-v2-pointEnd)"></path><path d="M1170.953,321.5L1170.953,336.5C1170.953,351.5,1170.953,381.5,1170.953,403.583C1170.953,425.667,1170.953,439.833,1170.953,446.917L1170.953,454" id="L_Client_Health_0_0" class="edge-thickness-normal edge-pattern-solid edge-thickness-normal edge-pattern-solid flowchart-link" style=";" data-edge="true" data-et="edge" data-id="L_Client_Health_0_0" data-points="W3sieCI6MTE3MC45NTMxMjUsInkiOjMyMS41fSx7IngiOjExNzAuOTUzMTI1LCJ5Ijo0MTEuNX0seyJ4IjoxMTcwLjk1MzEyNSwieSI6NDU4fV0=" marker-end="url(#mermaid-1770215532112_flowchart-v2-pointEnd)"></path><path d="M344.672,536L344.672,539.25C344.672,542.5,344.672,549,344.672,561.417C344.672,573.833,344.672,592.167,345.034,601.805C345.396,611.443,346.12,612.386,346.953,613.219C347.786,614.052,348.729,614.776,467.657,615.138C586.584,615.5,823.496,615.5,942.424,615.862C1061.351,616.224,1062.294,616.948,1063.127,617.781C1063.961,618.614,1064.685,619.557,1065.047,626.029C1065.408,632.5,1065.408,644.5,1065.408,650.5L1065.408,656.5" id="L_Mappings_HTTP_0_0" class="edge-thickness-normal edge-pattern-solid edge-thickness-normal edge-pattern-solid flowchart-link" style=";" data-edge="true" data-et="edge" data-id="L_Mappings_HTTP_0_0" data-points="W3sieCI6MzQ0LjY3MTg3NSwieSI6NTM2fSx7IngiOjM0NC42NzE4NzUsInkiOjU1NS41fSx7IngiOjM0NC42NzE4NzUsInkiOjYxNS41fSx7IngiOjEwNjUuNDA4NDgyMTQyODU3MywieSI6NjE1LjV9LHsieCI6MTA2NS40MDg0ODIxNDI4NTczLCJ5Ijo2NjAuNX1d" marker-end="url(#mermaid-1770215532112_flowchart-v2-pointEnd)"></path><path d="M158.583,536L158.583,539.25C158.583,542.5,158.583,549,158.583,563.917C158.583,578.833,158.583,602.167,158.945,614.305C159.307,626.443,160.031,627.386,160.864,628.219C161.698,629.052,162.641,629.776,308.185,630.138C453.73,630.5,743.876,630.5,889.421,630.862C1034.965,631.224,1035.908,631.948,1036.741,632.781C1037.575,633.614,1038.298,634.557,1038.66,638.529C1039.022,642.5,1039.022,649.5,1039.022,653L1039.022,656.5" id="L_Instances_HTTP_0_0" class="edge-thickness-normal edge-pattern-solid edge-thickness-normal edge-pattern-solid flowchart-link" style=";" data-edge="true" data-et="edge" data-id="L_Instances_HTTP_0_0" data-points="W3sieCI6MTU4LjU4MzMzMzMzMzMzMzMxLCJ5Ijo1MzZ9LHsieCI6MTU4LjU4MzMzMzMzMzMzMzMxLCJ5Ijo1NTUuNX0seyJ4IjoxNTguNTgzMzMzMzMzMzMzMzEsInkiOjYzMC41fSx7IngiOjEwMzkuMDIyMzIxNDI4NTcxNiwieSI6NjMwLjV9LHsieCI6MTAzOS4wMjIzMjE0Mjg1NzE2LCJ5Ijo2NjAuNX1d" marker-end="url(#mermaid-1770215532112_flowchart-v2-pointEnd)"></path><path d="M568.977,536L568.977,539.25C568.977,542.5,568.977,549,568.977,558.917C568.977,568.833,568.977,582.167,569.338,589.305C569.7,596.443,570.424,597.386,571.258,598.219C572.091,599.052,573.034,599.776,658.975,600.138C744.916,600.5,915.855,600.5,1001.796,600.862C1087.737,601.224,1088.68,601.948,1089.514,602.781C1090.347,603.614,1091.071,604.557,1091.433,613.529C1091.795,622.5,1091.795,639.5,1091.795,648L1091.795,656.5" id="L_Schema_HTTP_0_0" class="edge-thickness-normal edge-pattern-solid edge-thickness-normal edge-pattern-solid flowchart-link" style=";" data-edge="true" data-et="edge" data-id="L_Schema_HTTP_0_0" data-points="W3sieCI6NTY4Ljk3NjU2MjUsInkiOjUzNn0seyJ4Ijo1NjguOTc2NTYyNSwieSI6NTU1LjV9LHsieCI6NTY4Ljk3NjU2MjUsInkiOjYwMC41fSx7IngiOjEwOTEuNzk0NjQyODU3MTQzLCJ5Ijo2MDAuNX0seyJ4IjoxMDkxLjc5NDY0Mjg1NzE0MywieSI6NjYwLjV9XQ==" marker-end="url(#mermaid-1770215532112_flowchart-v2-pointEnd)"></path><path d="M777.352,536L777.352,539.25C777.352,542.5,777.352,549,777.352,556.417C777.352,563.833,777.352,572.167,777.713,576.805C778.075,581.443,778.799,582.386,779.633,583.219C780.466,584.052,781.409,584.776,837.018,585.138C892.628,585.5,1002.904,585.5,1058.514,585.862C1114.124,586.224,1115.066,586.948,1115.9,587.781C1116.733,588.614,1117.457,589.557,1117.819,601.029C1118.181,612.5,1118.181,634.5,1118.181,645.5L1118.181,656.5" id="L_Ops_HTTP_0_0" class="edge-thickness-normal edge-pattern-solid edge-thickness-normal edge-pattern-solid flowchart-link" style=";" data-edge="true" data-et="edge" data-id="L_Ops_HTTP_0_0" data-points="W3sieCI6Nzc3LjM1MTU2MjUsInkiOjUzNn0seyJ4Ijo3NzcuMzUxNTYyNSwieSI6NTU1LjV9LHsieCI6Nzc3LjM1MTU2MjUsInkiOjU4NS41fSx7IngiOjExMTguMTgwODAzNTcxNDI4NywieSI6NTg1LjV9LHsieCI6MTExOC4xODA4MDM1NzE0Mjg3LCJ5Ijo2NjAuNX1d" marker-end="url(#mermaid-1770215532112_flowchart-v2-pointEnd)"></path><path d="M970.719,536L970.719,539.25C970.719,542.5,970.719,549,970.719,553.917C970.719,558.833,970.719,562.167,971.081,564.305C971.443,566.443,972.166,567.386,973,568.219C973.833,569.052,974.776,569.776,1002.555,570.138C1030.335,570.5,1084.951,570.5,1112.73,570.862C1140.51,571.224,1141.453,571.948,1142.286,572.781C1143.119,573.614,1143.843,574.557,1144.205,588.529C1144.567,602.5,1144.567,629.5,1144.567,643L1144.567,656.5" id="L_Admin_HTTP_0_0" class="edge-thickness-normal edge-pattern-solid edge-thickness-normal edge-pattern-solid flowchart-link" style=";" data-edge="true" data-et="edge" data-id="L_Admin_HTTP_0_0" data-points="W3sieCI6OTcwLjcxODc1LCJ5Ijo1MzZ9LHsieCI6OTcwLjcxODc1LCJ5Ijo1NTUuNX0seyJ4Ijo5NzAuNzE4NzUsInkiOjU3MC41fSx7IngiOjExNDQuNTY2OTY0Mjg1NzE0MiwieSI6NTcwLjV9LHsieCI6MTE0NC41NjY5NjQyODU3MTQyLCJ5Ijo2NjAuNX1d" marker-end="url(#mermaid-1770215532112_flowchart-v2-pointEnd)"></path><path d="M1170.953,536L1170.953,539.25C1170.953,542.5,1170.953,549,1170.953,569.083C1170.953,589.167,1170.953,622.833,1170.953,639.667L1170.953,656.5" id="L_Health_HTTP_0_0" class="edge-thickness-normal edge-pattern-solid edge-thickness-normal edge-pattern-solid flowchart-link" style=";" data-edge="true" data-et="edge" data-id="L_Health_HTTP_0_0" data-points="W3sieCI6MTE3MC45NTMxMjUsInkiOjUzNn0seyJ4IjoxMTcwLjk1MzEyNSwieSI6NTU1LjV9LHsieCI6MTE3MC45NTMxMjUsInkiOjY2MC41fV0=" marker-end="url(#mermaid-1770215532112_flowchart-v2-pointEnd)"></path><path d="M1104.988,810.5L1104.988,879.25C1104.988,948,1104.988,1085.5,1104.988,1159.417C1104.988,1233.333,1104.988,1243.667,1104.988,1248.833L1104.988,1254" id="L_HTTP_CP_0_0" class="edge-thickness-normal edge-pattern-solid edge-thickness-normal edge-pattern-solid flowchart-link" style=";" data-edge="true" data-et="edge" data-id="L_HTTP_CP_0_0" data-points="W3sieCI6MTEwNC45ODc3MjMyMTQyODU4LCJ5Ijo4MTAuNX0seyJ4IjoxMTA0Ljk4NzcyMzIxNDI4NTgsInkiOjEyMjN9LHsieCI6MTEwNC45ODc3MjMyMTQyODU4LCJ5IjoxMjU4fV0=" marker-end="url(#mermaid-1770215532112_flowchart-v2-pointEnd)"></path><path d="M97.292,536L97.292,539.25C97.292,542.5,97.292,549,97.292,566.417C97.292,583.833,97.292,612.167,97.654,626.805C98.016,641.443,98.739,642.386,99.573,643.219C100.406,644.052,101.349,644.776,240.169,645.138C378.989,645.5,655.685,645.5,794.505,645.862C933.325,646.224,934.268,646.948,935.101,647.781C935.935,648.614,936.658,649.557,937.02,681.695C937.382,713.833,937.382,777.167,937.382,815.917C937.382,854.667,937.382,868.833,937.382,875.917L937.382,883" id="L_Instances_Conn_0_0" class="edge-thickness-normal edge-pattern-dotted edge-thickness-normal edge-pattern-solid flowchart-link" style=";" data-edge="true" data-et="edge" data-id="L_Instances_Conn_0_0" data-points="W3sieCI6OTcuMjkxNjY2NjY2NjY2NjYsInkiOjUzNn0seyJ4Ijo5Ny4yOTE2NjY2NjY2NjY2MywieSI6NTU1LjV9LHsieCI6OTcuMjkxNjY2NjY2NjY2NjMsInkiOjY0NS41fSx7IngiOjkzNy4zODIyNTQ0NjQyODU4LCJ5Ijo2NDUuNX0seyJ4Ijo5MzcuMzgyMjU0NDY0Mjg1OCwieSI6ODQwLjV9LHsieCI6OTM3LjM4MjI1NDQ2NDI4NTgsInkiOjg4N31d" marker-end="url(#mermaid-1770215532112_flowchart-v2-pointEnd)"></path><path d="M937.382,1013L937.382,1017.167C937.382,1021.333,937.382,1029.667,937.02,1034.305C936.658,1038.943,935.935,1039.886,935.101,1040.719C934.268,1041.552,933.325,1042.276,905.66,1042.638C877.996,1043,823.609,1043,795.944,1043.362C768.279,1043.724,767.336,1044.448,766.503,1045.281C765.67,1046.114,764.946,1047.057,764.584,1048.529C764.222,1050,764.222,1052,764.222,1053L764.222,1054" id="L_Conn_Algo_0_0" class="edge-thickness-normal edge-pattern-solid edge-thickness-normal edge-pattern-solid flowchart-link" style=";" data-edge="true" data-et="edge" data-id="L_Conn_Algo_0_0" data-points="W3sieCI6OTM3LjM4MjI1NDQ2NDI4NTgsInkiOjEwMTN9LHsieCI6OTM3LjM4MjI1NDQ2NDI4NTgsInkiOjEwNDN9LHsieCI6NzY0LjIyMjA5ODIxNDI4NTgsInkiOjEwNDN9LHsieCI6NzY0LjIyMjA5ODIxNDI4NTgsInkiOjEwNTh9XQ==" marker-end="url(#mermaid-1770215532112_flowchart-v2-pointEnd)"></path><path d="M983.558,1013L983.558,1054" id="L_Conn_NX_0_0" class="edge-thickness-normal edge-pattern-solid edge-thickness-normal edge-pattern-solid flowchart-link" style=";" data-edge="true" data-et="edge" data-id="L_Conn_NX_0_0" data-points="W3sieCI6OTgzLjU1ODAzNTcxNDI4NTgsInkiOjEwMTN9LHsieCI6OTgzLjU1ODAzNTcxNDI4NTgsInkiOjEwNTh9XQ==" marker-end="url(#mermaid-1770215532112_flowchart-v2-pointEnd)"></path><path d="M891.206,1013L891.206,1014.667C891.206,1016.333,891.206,1019.667,890.845,1021.805C890.483,1023.943,889.759,1024.886,888.925,1025.719C888.092,1026.552,887.149,1027.276,848.696,1027.638C810.243,1028,734.279,1028,695.826,1028.362C657.373,1028.724,656.43,1029.448,655.597,1030.281C654.764,1031.114,654.04,1032.057,653.678,1060.945C653.316,1089.833,653.316,1146.667,653.316,1178.333C653.316,1210,653.316,1216.5,653.316,1224.917C653.316,1233.333,653.316,1243.667,653.316,1248.833L653.316,1254" id="L_Conn_Wrapper_0_0" class="edge-thickness-normal edge-pattern-solid edge-thickness-normal edge-pattern-solid flowchart-link" style=";" data-edge="true" data-et="edge" data-id="L_Conn_Wrapper_0_0" data-points="W3sieCI6ODkxLjIwNjQ3MzIxNDI4NTgsInkiOjEwMTN9LHsieCI6ODkxLjIwNjQ3MzIxNDI4NTgsInkiOjEwMjh9LHsieCI6NjUzLjMxNTg0ODIxNDI4NTgsInkiOjEwMjh9LHsieCI6NjUzLjMxNTg0ODIxNDI4NTgsInkiOjEyMDMuNX0seyJ4Ijo2NTMuMzE1ODQ4MjE0Mjg1OCwieSI6MTIyM30seyJ4Ijo2NTMuMzE1ODQ4MjE0Mjg1OCwieSI6MTI1OH1d" marker-end="url(#mermaid-1770215532112_flowchart-v2-pointEnd)"></path><path d="M764.222,1184L764.222,1187.25C764.222,1190.5,764.222,1197,764.222,1203.5C764.222,1210,764.222,1216.5,764.222,1221.833C764.222,1227.167,764.222,1231.333,763.86,1233.888C763.498,1236.443,762.774,1237.386,761.941,1238.219C761.108,1239.052,760.165,1239.776,754.064,1240.138C747.963,1240.5,736.705,1240.5,730.604,1240.862C724.503,1241.224,723.56,1241.948,722.727,1242.781C721.894,1243.614,721.17,1244.557,720.808,1246.445C720.446,1248.333,720.446,1251.167,720.446,1252.583L720.446,1254" id="L_Algo_Wrapper_0_0" class="edge-thickness-normal edge-pattern-solid edge-thickness-normal edge-pattern-solid flowchart-link" style=";" data-edge="true" data-et="edge" data-id="L_Algo_Wrapper_0_0" data-points="W3sieCI6NzY0LjIyMjA5ODIxNDI4NTgsInkiOjExODR9LHsieCI6NzY0LjIyMjA5ODIxNDI4NTgsInkiOjEyMDMuNX0seyJ4Ijo3NjQuMjIyMDk4MjE0Mjg1OCwieSI6MTIyM30seyJ4Ijo3NjQuMjIyMDk4MjE0Mjg1OCwieSI6MTI0MC41fSx7IngiOjcyMC40NDYwNTY1NDc2MTksInkiOjEyNDAuNX0seyJ4Ijo3MjAuNDQ2MDU2NTQ3NjE5LCJ5IjoxMjU4fV0=" marker-end="url(#mermaid-1770215532112_flowchart-v2-pointEnd)"></path></g><g class="edgeLabels"><g class="edgeLabel"><g class="label" data-id="L_Jupyter_Client_0_0" transform="translate(0, 0)"><foreignObject width="0" height="0"><div xmlns="http://www.w3.org/1999/xhtml" class="labelBkg" style="display: table-cell; white-space: nowrap; line-height: 1.5; max-width: 200px; text-align: center;"><span class="edgeLabel"></span></div></foreignObject></g></g><g class="edgeLabel"><g class="label" data-id="L_Client_Mappings_0_0" transform="translate(0, 0)"><foreignObject width="0" height="0"><div xmlns="http://www.w3.org/1999/xhtml" class="labelBkg" style="display: table-cell; white-space: nowrap; line-height: 1.5; max-width: 200px; text-align: center;"><span class="edgeLabel"></span></div></foreignObject></g></g><g class="edgeLabel"><g class="label" data-id="L_Client_Instances_0_0" transform="translate(0, 0)"><foreignObject width="0" height="0"><div xmlns="http://www.w3.org/1999/xhtml" class="labelBkg" style="display: table-cell; white-space: nowrap; line-height: 1.5; max-width: 200px; text-align: center;"><span class="edgeLabel"></span></div></foreignObject></g></g><g class="edgeLabel"><g class="label" data-id="L_Client_Schema_0_0" transform="translate(0, 0)"><foreignObject width="0" height="0"><div xmlns="http://www.w3.org/1999/xhtml" class="labelBkg" style="display: table-cell; white-space: nowrap; line-height: 1.5; max-width: 200px; text-align: center;"><span class="edgeLabel"></span></div></foreignObject></g></g><g class="edgeLabel"><g class="label" data-id="L_Client_Ops_0_0" transform="translate(0, 0)"><foreignObject width="0" height="0"><div xmlns="http://www.w3.org/1999/xhtml" class="labelBkg" style="display: table-cell; white-space: nowrap; line-height: 1.5; max-width: 200px; text-align: center;"><span class="edgeLabel"></span></div></foreignObject></g></g><g class="edgeLabel"><g class="label" data-id="L_Client_Admin_0_0" transform="translate(0, 0)"><foreignObject width="0" height="0"><div xmlns="http://www.w3.org/1999/xhtml" class="labelBkg" style="display: table-cell; white-space: nowrap; line-height: 1.5; max-width: 200px; text-align: center;"><span class="edgeLabel"></span></div></foreignObject></g></g><g class="edgeLabel"><g class="label" data-id="L_Client_Health_0_0" transform="translate(0, 0)"><foreignObject width="0" height="0"><div xmlns="http://www.w3.org/1999/xhtml" class="labelBkg" style="display: table-cell; white-space: nowrap; line-height: 1.5; max-width: 200px; text-align: center;"><span class="edgeLabel"></span></div></foreignObject></g></g><g class="edgeLabel"><g class="label" data-id="L_Mappings_HTTP_0_0" transform="translate(0, 0)"><foreignObject width="0" height="0"><div xmlns="http://www.w3.org/1999/xhtml" class="labelBkg" style="display: table-cell; white-space: nowrap; line-height: 1.5; max-width: 200px; text-align: center;"><span class="edgeLabel"></span></div></foreignObject></g></g><g class="edgeLabel"><g class="label" data-id="L_Instances_HTTP_0_0" transform="translate(0, 0)"><foreignObject width="0" height="0"><div xmlns="http://www.w3.org/1999/xhtml" class="labelBkg" style="display: table-cell; white-space: nowrap; line-height: 1.5; max-width: 200px; text-align: center;"><span class="edgeLabel"></span></div></foreignObject></g></g><g class="edgeLabel"><g class="label" data-id="L_Schema_HTTP_0_0" transform="translate(0, 0)"><foreignObject width="0" height="0"><div xmlns="http://www.w3.org/1999/xhtml" class="labelBkg" style="display: table-cell; white-space: nowrap; line-height: 1.5; max-width: 200px; text-align: center;"><span class="edgeLabel"></span></div></foreignObject></g></g><g class="edgeLabel"><g class="label" data-id="L_Ops_HTTP_0_0" transform="translate(0, 0)"><foreignObject width="0" height="0"><div xmlns="http://www.w3.org/1999/xhtml" class="labelBkg" style="display: table-cell; white-space: nowrap; line-height: 1.5; max-width: 200px; text-align: center;"><span class="edgeLabel"></span></div></foreignObject></g></g><g class="edgeLabel"><g class="label" data-id="L_Admin_HTTP_0_0" transform="translate(0, 0)"><foreignObject width="0" height="0"><div xmlns="http://www.w3.org/1999/xhtml" class="labelBkg" style="display: table-cell; white-space: nowrap; line-height: 1.5; max-width: 200px; text-align: center;"><span class="edgeLabel"></span></div></foreignObject></g></g><g class="edgeLabel"><g class="label" data-id="L_Health_HTTP_0_0" transform="translate(0, 0)"><foreignObject width="0" height="0"><div xmlns="http://www.w3.org/1999/xhtml" class="labelBkg" style="display: table-cell; white-space: nowrap; line-height: 1.5; max-width: 200px; text-align: center;"><span class="edgeLabel"></span></div></foreignObject></g></g><g class="edgeLabel"><g class="label" data-id="L_HTTP_CP_0_0" transform="translate(0, 0)"><foreignObject width="0" height="0"><div xmlns="http://www.w3.org/1999/xhtml" class="labelBkg" style="display: table-cell; white-space: nowrap; line-height: 1.5; max-width: 200px; text-align: center;"><span class="edgeLabel"></span></div></foreignObject></g></g><g class="edgeLabel" transform="translate(937.2494419642858, 735.5)"><g class="label" data-id="L_Instances_Conn_0_0" transform="translate(-34.3671875, -12)"><foreignObject width="68.734375" height="24"><div xmlns="http://www.w3.org/1999/xhtml" class="labelBkg" style="display: table-cell; white-space: nowrap; line-height: 1.5; max-width: 200px; text-align: center;"><span class="edgeLabel"><p>connect()</p></span></div></foreignObject></g></g><g class="edgeLabel"><g class="label" data-id="L_Conn_Algo_0_0" transform="translate(0, 0)"><foreignObject width="0" height="0"><div xmlns="http://www.w3.org/1999/xhtml" class="labelBkg" style="display: table-cell; white-space: nowrap; line-height: 1.5; max-width: 200px; text-align: center;"><span class="edgeLabel"></span></div></foreignObject></g></g><g class="edgeLabel"><g class="label" data-id="L_Conn_NX_0_0" transform="translate(0, 0)"><foreignObject width="0" height="0"><div xmlns="http://www.w3.org/1999/xhtml" class="labelBkg" style="display: table-cell; white-space: nowrap; line-height: 1.5; max-width: 200px; text-align: center;"><span class="edgeLabel"></span></div></foreignObject></g></g><g class="edgeLabel"><g class="label" data-id="L_Conn_Wrapper_0_0" transform="translate(0, 0)"><foreignObject width="0" height="0"><div xmlns="http://www.w3.org/1999/xhtml" class="labelBkg" style="display: table-cell; white-space: nowrap; line-height: 1.5; max-width: 200px; text-align: center;"><span class="edgeLabel"></span></div></foreignObject></g></g><g class="edgeLabel"><g class="label" data-id="L_Algo_Wrapper_0_0" transform="translate(0, 0)"><foreignObject width="0" height="0"><div xmlns="http://www.w3.org/1999/xhtml" class="labelBkg" style="display: table-cell; white-space: nowrap; line-height: 1.5; max-width: 200px; text-align: center;"><span class="edgeLabel"></span></div></foreignObject></g></g></g></svg>