<svg id="mermaid-1770215491535" width="100%" xmlns="http://www.w3.org/2000/svg" xmlns:xlink="http://www.w3.org/1999/xlink" style="max-width: 1388px;" viewBox="-77 -20 1388 1895" role="graphics-document document" aria-roledescription="sequence" aria-describedby="chart-desc-mermaid-1770215491535" aria-labelledby="chart-title-mermaid-1770215491535" height="auto"><title id="chart-title-mermaid-1770215491535">K8s Export Worker Sequence</title><desc id="chart-desc-mermaid-1770215491535">Worker polls database for jobs, Starburst resource groups handle throttling</desc><g><rect x="1141" y="1790" fill="#eaeaea" stroke="#666" width="150" height="65" name="GCS" rx="3" ry="3" class="actor actor-bottom"></rect><text x="1216" y="1822.5" dominant-baseline="central" alignment-baseline="central" class="actor actor-box" style="text-anchor: middle; font-size: 16px; font-weight: 400;"><tspan x="1216" dy="0">GCS</tspan></text></g><g><rect x="922" y="1790" fill="#eaeaea" stroke="#666" width="150" height="65" name="SB" rx="3" ry="3" class="actor actor-bottom"></rect><text x="997" y="1822.5" dominant-baseline="central" alignment-baseline="central" class="actor actor-box" style="text-anchor: middle; font-size: 16px; font-weight: 400;"><tspan x="997" dy="-8">Starburst</tspan></text><text x="997" y="1822.5" dominant-baseline="central" alignment-baseline="central" class="actor actor-box" style="text-anchor: middle; font-size: 16px; font-weight: 400;"><tspan x="997" dy="8">(Resource Group)</tspan></text></g><g><rect x="722" y="1790" fill="#eaeaea" stroke="#666" width="150" height="65" name="DB" rx="3" ry="3" class="actor actor-bottom"></rect><text x="797" y="1822.5" dominant-baseline="central" alignment-baseline="central" class="actor actor-box" style="text-anchor: middle; font-size: 16px; font-weight: 400;"><tspan x="797" dy="0">Database</tspan></text></g><g><rect x="370" y="1790" fill="#eaeaea" stroke="#666" width="150" height="65" name="CP" rx="3" ry="3" class="actor actor-bottom"></rect><text x="445" y="1822.5" dominant-baseline="central" alignment-baseline="central" class="actor actor-box" style="text-anchor: middle; font-size: 16px; font-weight: 400;"><tspan x="445" dy="0">Control Plane</tspan></text></g><g><rect x="0" y="1790" fill="#eaeaea" stroke="#666" width="150" height="65" name="WK" rx="3" ry="3" class="actor actor-bottom"></rect><text x="75" y="1822.5" dominant-baseline="central" alignment-baseline="central" class="actor actor-box" style="text-anchor: middle; font-size: 16px; font-weight: 400;"><tspan x="75" dy="0">Export Worker</tspan></text></g><g><line id="actor4" x1="1216" y1="65" x2="1216" y2="1790" class="actor-line 200" stroke-width="0.5px" stroke="#999" name="GCS"></line><g id="root-4"><rect x="1141" y="0" fill="#eaeaea" stroke="#666" width="150" height="65" name="GCS" rx="3" ry="3" class="actor actor-top"></rect><text x="1216" y="32.5" dominant-baseline="central" alignment-baseline="central" class="actor actor-box" style="text-anchor: middle; font-size: 16px; font-weight: 400;"><tspan x="1216" dy="0">GCS</tspan></text></g></g><g><line id="actor3" x1="997" y1="65" x2="997" y2="1790" class="actor-line 200" stroke-width="0.5px" stroke="#999" name="SB"></line><g id="root-3"><rect x="922" y="0" fill="#eaeaea" stroke="#666" width="150" height="65" name="SB" rx="3" ry="3" class="actor actor-top"></rect><text x="997" y="32.5" dominant-baseline="central" alignment-baseline="central" class="actor actor-box" style="text-anchor: middle; font-size: 16px; font-weight: 400;"><tspan x="997" dy="-8">Starburst</tspan></text><text x="997" y="32.5" dominant-baseline="central" alignment-baseline="central" class="actor actor-box" style="text-anchor: middle; font-size: 16px; font-weight: 400;"><tspan x="997" dy="8">(Resource Group)</tspan></text></g></g><g><line id="actor2" x1="797" y1="65" x2="797" y2="1790" class="actor-line 200" stroke-width="0.5px" stroke="#999" name="DB"></line><g id="root-2"><rect x="722" y="0" fill="#eaeaea" stroke="#666" width="150" height="65" name="DB" rx="3" ry="3" class="actor actor-top"></rect><text x="797" y="32.5" dominant-baseline="central" alignment-baseline="central" class="actor actor-box" style="text-anchor: middle; font-size: 16px; font-weight: 400;"><tspan x="797" dy="0">Database</tspan></text></g></g><g><line id="actor1" x1="445" y1="65" x2="445" y2="1790" class="actor-line 200" stroke-width="0.5px" stroke="#999" name="CP"></line><g id="root-1"><rect x="370" y="0" fill="#eaeaea" stroke="#666" width="150" height="65" name="CP" rx="3" ry="3" class="actor actor-top"></rect><text x="445" y="32.5" dominant-baseline="central" alignment-baseline="central" class="actor actor-box" style="text-anchor: middle; font-size: 16px; font-weight: 400;"><tspan x="445" dy="0">Control Plane</tspan></text></g></g><g><line id="actor0" x1="75" y1="65" x2="75" y2="1790" class="actor-line 200" stroke-width="0.5px" stroke="#999" name="WK"></line><g id="root-0"><rect x="0" y="0" fill="#eaeaea" stroke="#666" width="150" height="65" name="WK" rx="3" ry="3" class="actor actor-top"></rect><text x="75" y="32.5" dominant-baseline="central" alignment-baseline="central" class="actor actor-box" style="text-anchor: middle; font-size: 16px; font-weight: 400;"><tspan x="75" dy="0">Export Worker</tspan></text></g></g><style>#mermaid-1770215491535{font-family:"trebuchet ms",verdana,arial,sans-serif;font-size:16px;fill:#333;}@keyframes edge-animation-frame{from{stroke-dashoffset:0;}}@keyframes dash{to{stroke-dashoffset:0;}}#mermaid-1770215491535 .edge-animation-slow{stroke-dasharray:9,5!important;stroke-dashoffset:900;animation:dash 50s linear infinite;stroke-linecap:round;}#mermaid-1770215491535 .edge-animation-fast{stroke-dasharray:9,5!important;stroke-dashoffset:900;animation:dash 20s linear infinite;stroke-linecap:round;}#mermaid-1770215491535 .error-icon{fill:#552222;}#mermaid-1770215491535 .error-text{fill:#552222;stroke:#552222;}#mermaid-1770215491535 .edge-thickness-normal{stroke-width:1px;}#mermaid-1770215491535 .edge-thickness-thick{stroke-width:3.5px;}#mermaid-1770215491535 .edge-pattern-solid{stroke-dasharray:0;}#mermaid-1770215491535 .edge-thickness-invisible{stroke-width:0;fill:none;}#mermaid-1770215491535 .edge-pattern-dashed{stroke-dasharray:3;}#mermaid-1770215491535 .edge-pattern-dotted{stroke-dasharray:2;}#mermaid-1770215491535 .marker{fill:#333333;stroke:#333333;}#mermaid-1770215491535 .marker.cross{stroke:#333333;}#mermaid-1770215491535 svg{font-family:"trebuchet ms",verdana,arial,sans-serif;font-size:16px;}#mermaid-1770215491535 p{margin:0;}#mermaid-1770215491535 .actor{stroke:hsl(259.6261682243, 59.7765363128%, 87.9019607843%);fill:#ECECFF;}#mermaid-1770215491535 text.actor&gt;tspan{fill:black;stroke:none;}#mermaid-1770215491535 .actor-line{stroke:hsl(259.6261682243, 59.7765363128%, 87.9019607843%);}#mermaid-1770215491535 .innerArc{stroke-width:1.5;stroke-dasharray:none;}#mermaid-1770215491535 .messageLine0{stroke-width:1.5;stroke-dasharray:none;stroke:#333;}#mermaid-1770215491535 .messageLine1{stroke-width:1.5;stroke-dasharray:2,2;stroke:#333;}#mermaid-1770215491535 #arrowhead path{fill:#333;stroke:#333;}#mermaid-1770215491535 .sequenceNumber{fill:white;}#mermaid-1770215491535 #sequencenumber{fill:#333;}#mermaid-1770215491535 #crosshead path{fill:#333;stroke:#333;}#mermaid-1770215491535 .messageText{fill:#333;stroke:none;}#mermaid-1770215491535 .labelBox{stroke:hsl(259.6261682243, 59.7765363128%, 87.9019607843%);fill:#ECECFF;}#mermaid-1770215491535 .labelText,#mermaid-1770215491535 .labelText&gt;tspan{fill:black;stroke:none;}#mermaid-1770215491535 .loopText,#mermaid-1770215491535 .loopText&gt;tspan{fill:black;stroke:none;}#mermaid-1770215491535 .loopLine{stroke-width:2px;stroke-dasharray:2,2;stroke:hsl(259.6261682243, 59.7765363128%, 87.9019607843%);fill:hsl(259.6261682243, 59.7765363128%, 87.9019607843%);}#mermaid-1770215491535 .note{stroke:#aaaa33;fill:#fff5ad;}#mermaid-1770215491535 .noteText,#mermaid-1770215491535 .noteText&gt;tspan{fill:black;stroke:none;}#mermaid-1770215491535 .activation0{fill:#f4f4f4;stroke:#666;}#mermaid-1770215491535 .activation1{fill:#f4f4f4;stroke:#666;}#mermaid-1770215491535 .activation2{fill:#f4f4f4;stroke:#666;}#mermaid-1770215491535 .actorPopupMenu{position:absolute;}#mermaid-1770215491535 .actorPopupMenuPanel{position:absolute;fill:#ECECFF;box-shadow:0px 8px 16px 0px rgba(0,0,0,0.2);filter:drop-shadow(3px 5px 2px rgb(0 0 0 / 0.4));}#mermaid-1770215491535 .actor-man line{stroke:hsl(259.6261682243, 59.7765363128%, 87.9019607843%);fill:#ECECFF;}#mermaid-1770215491535 .actor-man circle,#mermaid-1770215491535 line{stroke:hsl(259.6261682243, 59.7765363128%, 87.9019607843%);fill:#ECECFF;stroke-width:2px;}#mermaid-1770215491535 :root{--mermaid-font-family:"trebuchet ms",verdana,arial,sans-serif;}</style><g></g><defs><symbol id="computer" width="24" height="24"><path transform="scale(.5)" d="M2 2v13h20v-13h-20zm18 11h-16v-9h16v9zm-10.228 6l.466-1h3.524l.467 1h-4.457zm14.228 3h-24l2-6h2.104l-1.33 4h18.45l-1.297-4h2.073l2 6zm-5-10h-14v-7h14v7z"></path></symbol></defs><defs><symbol id="database" fill-rule="evenodd" clip-rule="evenodd"><path transform="scale(.5)" d="M12.258.001l.256.004.255.005.253.008.251.01.249.012.247.015.246.016.242.019.241.02.239.023.236.024.233.027.231.028.229.031.225.032.223.034.22.036.217.038.214.04.211.041.208.043.205.045.201.046.198.048.194.05.191.051.187.053.183.054.18.056.175.057.172.059.168.06.163.061.16.063.155.064.15.066.074.033.073.033.071.034.07.034.069.035.068.035.067.035.066.035.064.036.064.036.062.036.06.036.06.037.058.037.058.037.055.038.055.038.053.038.052.038.051.039.05.039.048.039.047.039.045.04.044.04.043.04.041.04.04.041.039.041.037.041.036.041.034.041.033.042.032.042.03.042.029.042.027.042.026.043.024.043.023.043.021.043.02.043.018.044.017.043.015.044.013.044.012.044.011.045.009.044.007.045.006.045.004.045.002.045.001.045v17l-.001.045-.002.045-.004.045-.006.045-.007.045-.009.044-.011.045-.012.044-.013.044-.015.044-.017.043-.018.044-.02.043-.021.043-.023.043-.024.043-.026.043-.027.042-.029.042-.03.042-.032.042-.033.042-.034.041-.036.041-.037.041-.039.041-.04.041-.041.04-.043.04-.044.04-.045.04-.047.039-.048.039-.05.039-.051.039-.052.038-.053.038-.055.038-.055.038-.058.037-.058.037-.06.037-.06.036-.062.036-.064.036-.064.036-.066.035-.067.035-.068.035-.069.035-.07.034-.071.034-.073.033-.074.033-.15.066-.155.064-.16.063-.163.061-.168.06-.172.059-.175.057-.18.056-.183.054-.187.053-.191.051-.194.05-.198.048-.201.046-.205.045-.208.043-.211.041-.214.04-.217.038-.22.036-.223.034-.225.032-.229.031-.231.028-.233.027-.236.024-.239.023-.241.02-.242.019-.246.016-.247.015-.249.012-.251.01-.253.008-.255.005-.256.004-.258.001-.258-.001-.256-.004-.255-.005-.253-.008-.251-.01-.249-.012-.247-.015-.245-.016-.243-.019-.241-.02-.238-.023-.236-.024-.234-.027-.231-.028-.228-.031-.226-.032-.223-.034-.22-.036-.217-.038-.214-.04-.211-.041-.208-.043-.204-.045-.201-.046-.198-.048-.195-.05-.19-.051-.187-.053-.184-.054-.179-.056-.176-.057-.172-.059-.167-.06-.164-.061-.159-.063-.155-.064-.151-.066-.074-.033-.072-.033-.072-.034-.07-.034-.069-.035-.068-.035-.067-.035-.066-.035-.064-.036-.063-.036-.062-.036-.061-.036-.06-.037-.058-.037-.057-.037-.056-.038-.055-.038-.053-.038-.052-.038-.051-.039-.049-.039-.049-.039-.046-.039-.046-.04-.044-.04-.043-.04-.041-.04-.04-.041-.039-.041-.037-.041-.036-.041-.034-.041-.033-.042-.032-.042-.03-.042-.029-.042-.027-.042-.026-.043-.024-.043-.023-.043-.021-.043-.02-.043-.018-.044-.017-.043-.015-.044-.013-.044-.012-.044-.011-.045-.009-.044-.007-.045-.006-.045-.004-.045-.002-.045-.001-.045v-17l.001-.045.002-.045.004-.045.006-.045.007-.045.009-.044.011-.045.012-.044.013-.044.015-.044.017-.043.018-.044.02-.043.021-.043.023-.043.024-.043.026-.043.027-.042.029-.042.03-.042.032-.042.033-.042.034-.041.036-.041.037-.041.039-.041.04-.041.041-.04.043-.04.044-.04.046-.04.046-.039.049-.039.049-.039.051-.039.052-.038.053-.038.055-.038.056-.038.057-.037.058-.037.06-.037.061-.036.062-.036.063-.036.064-.036.066-.035.067-.035.068-.035.069-.035.07-.034.072-.034.072-.033.074-.033.151-.066.155-.064.159-.063.164-.061.167-.06.172-.059.176-.057.179-.056.184-.054.187-.053.19-.051.195-.05.198-.048.201-.046.204-.045.208-.043.211-.041.214-.04.217-.038.22-.036.223-.034.226-.032.228-.031.231-.028.234-.027.236-.024.238-.023.241-.02.243-.019.245-.016.247-.015.249-.012.251-.01.253-.008.255-.005.256-.004.258-.001.258.001zm-9.258 20.499v.01l.001.021.003.021.004.022.005.021.006.022.007.022.009.023.01.022.011.023.012.023.013.023.015.023.016.024.017.023.018.024.019.024.021.024.022.025.023.024.024.025.052.049.056.05.061.051.066.051.07.051.075.051.079.052.084.052.088.052.092.052.097.052.102.051.105.052.11.052.114.051.119.051.123.051.127.05.131.05.135.05.139.048.144.049.147.047.152.047.155.047.16.045.163.045.167.043.171.043.176.041.178.041.183.039.187.039.19.037.194.035.197.035.202.033.204.031.209.03.212.029.216.027.219.025.222.024.226.021.23.02.233.018.236.016.24.015.243.012.246.01.249.008.253.005.256.004.259.001.26-.001.257-.004.254-.005.25-.008.247-.011.244-.012.241-.014.237-.016.233-.018.231-.021.226-.021.224-.024.22-.026.216-.027.212-.028.21-.031.205-.031.202-.034.198-.034.194-.036.191-.037.187-.039.183-.04.179-.04.175-.042.172-.043.168-.044.163-.045.16-.046.155-.046.152-.047.148-.048.143-.049.139-.049.136-.05.131-.05.126-.05.123-.051.118-.052.114-.051.11-.052.106-.052.101-.052.096-.052.092-.052.088-.053.083-.051.079-.052.074-.052.07-.051.065-.051.06-.051.056-.05.051-.05.023-.024.023-.025.021-.024.02-.024.019-.024.018-.024.017-.024.015-.023.014-.024.013-.023.012-.023.01-.023.01-.022.008-.022.006-.022.006-.022.004-.022.004-.021.001-.021.001-.021v-4.127l-.077.055-.08.053-.083.054-.085.053-.087.052-.09.052-.093.051-.095.05-.097.05-.1.049-.102.049-.105.048-.106.047-.109.047-.111.046-.114.045-.115.045-.118.044-.12.043-.122.042-.124.042-.126.041-.128.04-.13.04-.132.038-.134.038-.135.037-.138.037-.139.035-.142.035-.143.034-.144.033-.147.032-.148.031-.15.03-.151.03-.153.029-.154.027-.156.027-.158.026-.159.025-.161.024-.162.023-.163.022-.165.021-.166.02-.167.019-.169.018-.169.017-.171.016-.173.015-.173.014-.175.013-.175.012-.177.011-.178.01-.179.008-.179.008-.181.006-.182.005-.182.004-.184.003-.184.002h-.37l-.184-.002-.184-.003-.182-.004-.182-.005-.181-.006-.179-.008-.179-.008-.178-.01-.176-.011-.176-.012-.175-.013-.173-.014-.172-.015-.171-.016-.17-.017-.169-.018-.167-.019-.166-.02-.165-.021-.163-.022-.162-.023-.161-.024-.159-.025-.157-.026-.156-.027-.155-.027-.153-.029-.151-.03-.15-.03-.148-.031-.146-.032-.145-.033-.143-.034-.141-.035-.14-.035-.137-.037-.136-.037-.134-.038-.132-.038-.13-.04-.128-.04-.126-.041-.124-.042-.122-.042-.12-.044-.117-.043-.116-.045-.113-.045-.112-.046-.109-.047-.106-.047-.105-.048-.102-.049-.1-.049-.097-.05-.095-.05-.093-.052-.09-.051-.087-.052-.085-.053-.083-.054-.08-.054-.077-.054v4.127zm0-5.654v.011l.001.021.003.021.004.021.005.022.006.022.007.022.009.022.01.022.011.023.012.023.013.023.015.024.016.023.017.024.018.024.019.024.021.024.022.024.023.025.024.024.052.05.056.05.061.05.066.051.07.051.075.052.079.051.084.052.088.052.092.052.097.052.102.052.105.052.11.051.114.051.119.052.123.05.127.051.131.05.135.049.139.049.144.048.147.048.152.047.155.046.16.045.163.045.167.044.171.042.176.042.178.04.183.04.187.038.19.037.194.036.197.034.202.033.204.032.209.03.212.028.216.027.219.025.222.024.226.022.23.02.233.018.236.016.24.014.243.012.246.01.249.008.253.006.256.003.259.001.26-.001.257-.003.254-.006.25-.008.247-.01.244-.012.241-.015.237-.016.233-.018.231-.02.226-.022.224-.024.22-.025.216-.027.212-.029.21-.03.205-.032.202-.033.198-.035.194-.036.191-.037.187-.039.183-.039.179-.041.175-.042.172-.043.168-.044.163-.045.16-.045.155-.047.152-.047.148-.048.143-.048.139-.05.136-.049.131-.05.126-.051.123-.051.118-.051.114-.052.11-.052.106-.052.101-.052.096-.052.092-.052.088-.052.083-.052.079-.052.074-.051.07-.052.065-.051.06-.05.056-.051.051-.049.023-.025.023-.024.021-.025.02-.024.019-.024.018-.024.017-.024.015-.023.014-.023.013-.024.012-.022.01-.023.01-.023.008-.022.006-.022.006-.022.004-.021.004-.022.001-.021.001-.021v-4.139l-.077.054-.08.054-.083.054-.085.052-.087.053-.09.051-.093.051-.095.051-.097.05-.1.049-.102.049-.105.048-.106.047-.109.047-.111.046-.114.045-.115.044-.118.044-.12.044-.122.042-.124.042-.126.041-.128.04-.13.039-.132.039-.134.038-.135.037-.138.036-.139.036-.142.035-.143.033-.144.033-.147.033-.148.031-.15.03-.151.03-.153.028-.154.028-.156.027-.158.026-.159.025-.161.024-.162.023-.163.022-.165.021-.166.02-.167.019-.169.018-.169.017-.171.016-.173.015-.173.014-.175.013-.175.012-.177.011-.178.009-.179.009-.179.007-.181.007-.182.005-.182.004-.184.003-.184.002h-.37l-.184-.002-.184-.003-.182-.004-.182-.005-.181-.007-.179-.007-.179-.009-.178-.009-.176-.011-.176-.012-.175-.013-.173-.014-.172-.015-.171-.016-.17-.017-.169-.018-.167-.019-.166-.02-.165-.021-.163-.022-.162-.023-.161-.024-.159-.025-.157-.026-.156-.027-.155-.028-.153-.028-.151-.03-.15-.03-.148-.031-.146-.033-.145-.033-.143-.033-.141-.035-.14-.036-.137-.036-.136-.037-.134-.038-.132-.039-.13-.039-.128-.04-.126-.041-.124-.042-.122-.043-.12-.043-.117-.044-.116-.044-.113-.046-.112-.046-.109-.046-.106-.047-.105-.048-.102-.049-.1-.049-.097-.05-.095-.051-.093-.051-.09-.051-.087-.053-.085-.052-.083-.054-.08-.054-.077-.054v4.139zm0-5.666v.011l.001.02.003.022.004.021.005.022.006.021.007.022.009.023.01.022.011.023.012.023.013.023.015.023.016.024.017.024.018.023.019.024.021.025.022.024.023.024.024.025.052.05.056.05.061.05.066.051.07.051.075.052.079.051.084.052.088.052.092.052.097.052.102.052.105.051.11.052.114.051.119.051.123.051.127.05.131.05.135.05.139.049.144.048.147.048.152.047.155.046.16.045.163.045.167.043.171.043.176.042.178.04.183.04.187.038.19.037.194.036.197.034.202.033.204.032.209.03.212.028.216.027.219.025.222.024.226.021.23.02.233.018.236.017.24.014.243.012.246.01.249.008.253.006.256.003.259.001.26-.001.257-.003.254-.006.25-.008.247-.01.244-.013.241-.014.237-.016.233-.018.231-.02.226-.022.224-.024.22-.025.216-.027.212-.029.21-.03.205-.032.202-.033.198-.035.194-.036.191-.037.187-.039.183-.039.179-.041.175-.042.172-.043.168-.044.163-.045.16-.045.155-.047.152-.047.148-.048.143-.049.139-.049.136-.049.131-.051.126-.05.123-.051.118-.052.114-.051.11-.052.106-.052.101-.052.096-.052.092-.052.088-.052.083-.052.079-.052.074-.052.07-.051.065-.051.06-.051.056-.05.051-.049.023-.025.023-.025.021-.024.02-.024.019-.024.018-.024.017-.024.015-.023.014-.024.013-.023.012-.023.01-.022.01-.023.008-.022.006-.022.006-.022.004-.022.004-.021.001-.021.001-.021v-4.153l-.077.054-.08.054-.083.053-.085.053-.087.053-.09.051-.093.051-.095.051-.097.05-.1.049-.102.048-.105.048-.106.048-.109.046-.111.046-.114.046-.115.044-.118.044-.12.043-.122.043-.124.042-.126.041-.128.04-.13.039-.132.039-.134.038-.135.037-.138.036-.139.036-.142.034-.143.034-.144.033-.147.032-.148.032-.15.03-.151.03-.153.028-.154.028-.156.027-.158.026-.159.024-.161.024-.162.023-.163.023-.165.021-.166.02-.167.019-.169.018-.169.017-.171.016-.173.015-.173.014-.175.013-.175.012-.177.01-.178.01-.179.009-.179.007-.181.006-.182.006-.182.004-.184.003-.184.001-.185.001-.185-.001-.184-.001-.184-.003-.182-.004-.182-.006-.181-.006-.179-.007-.179-.009-.178-.01-.176-.01-.176-.012-.175-.013-.173-.014-.172-.015-.171-.016-.17-.017-.169-.018-.167-.019-.166-.02-.165-.021-.163-.023-.162-.023-.161-.024-.159-.024-.157-.026-.156-.027-.155-.028-.153-.028-.151-.03-.15-.03-.148-.032-.146-.032-.145-.033-.143-.034-.141-.034-.14-.036-.137-.036-.136-.037-.134-.038-.132-.039-.13-.039-.128-.041-.126-.041-.124-.041-.122-.043-.12-.043-.117-.044-.116-.044-.113-.046-.112-.046-.109-.046-.106-.048-.105-.048-.102-.048-.1-.05-.097-.049-.095-.051-.093-.051-.09-.052-.087-.052-.085-.053-.083-.053-.08-.054-.077-.054v4.153zm8.74-8.179l-.257.004-.254.005-.25.008-.247.011-.244.012-.241.014-.237.016-.233.018-.231.021-.226.022-.224.023-.22.026-.216.027-.212.028-.21.031-.205.032-.202.033-.198.034-.194.036-.191.038-.187.038-.183.04-.179.041-.175.042-.172.043-.168.043-.163.045-.16.046-.155.046-.152.048-.148.048-.143.048-.139.049-.136.05-.131.05-.126.051-.123.051-.118.051-.114.052-.11.052-.106.052-.101.052-.096.052-.092.052-.088.052-.083.052-.079.052-.074.051-.07.052-.065.051-.06.05-.056.05-.051.05-.023.025-.023.024-.021.024-.02.025-.019.024-.018.024-.017.023-.015.024-.014.023-.013.023-.012.023-.01.023-.01.022-.008.022-.006.023-.006.021-.004.022-.004.021-.001.021-.001.021.001.021.001.021.004.021.004.022.006.021.006.023.008.022.01.022.01.023.012.023.013.023.014.023.015.024.017.023.018.024.019.024.02.025.021.024.023.024.023.025.051.05.056.05.06.05.065.051.07.052.074.051.079.052.083.052.088.052.092.052.096.052.101.052.106.052.11.052.114.052.118.051.123.051.126.051.131.05.136.05.139.049.143.048.148.048.152.048.155.046.16.046.163.045.168.043.172.043.175.042.179.041.183.04.187.038.191.038.194.036.198.034.202.033.205.032.21.031.212.028.216.027.22.026.224.023.226.022.231.021.233.018.237.016.241.014.244.012.247.011.25.008.254.005.257.004.26.001.26-.001.257-.004.254-.005.25-.008.247-.011.244-.012.241-.014.237-.016.233-.018.231-.021.226-.022.224-.023.22-.026.216-.027.212-.028.21-.031.205-.032.202-.033.198-.034.194-.036.191-.038.187-.038.183-.04.179-.041.175-.042.172-.043.168-.043.163-.045.16-.046.155-.046.152-.048.148-.048.143-.048.139-.049.136-.05.131-.05.126-.051.123-.051.118-.051.114-.052.11-.052.106-.052.101-.052.096-.052.092-.052.088-.052.083-.052.079-.052.074-.051.07-.052.065-.051.06-.05.056-.05.051-.05.023-.025.023-.024.021-.024.02-.025.019-.024.018-.024.017-.023.015-.024.014-.023.013-.023.012-.023.01-.023.01-.022.008-.022.006-.023.006-.021.004-.022.004-.021.001-.021.001-.021-.001-.021-.001-.021-.004-.021-.004-.022-.006-.021-.006-.023-.008-.022-.01-.022-.01-.023-.012-.023-.013-.023-.014-.023-.015-.024-.017-.023-.018-.024-.019-.024-.02-.025-.021-.024-.023-.024-.023-.025-.051-.05-.056-.05-.06-.05-.065-.051-.07-.052-.074-.051-.079-.052-.083-.052-.088-.052-.092-.052-.096-.052-.101-.052-.106-.052-.11-.052-.114-.052-.118-.051-.123-.051-.126-.051-.131-.05-.136-.05-.139-.049-.143-.048-.148-.048-.152-.048-.155-.046-.16-.046-.163-.045-.168-.043-.172-.043-.175-.042-.179-.041-.183-.04-.187-.038-.191-.038-.194-.036-.198-.034-.202-.033-.205-.032-.21-.031-.212-.028-.216-.027-.22-.026-.224-.023-.226-.022-.231-.021-.233-.018-.237-.016-.241-.014-.244-.012-.247-.011-.25-.008-.254-.005-.257-.004-.26-.001-.26.001z"></path></symbol></defs><defs><symbol id="clock" width="24" height="24"><path transform="scale(.5)" d="M12 2c5.514 0 10 4.486 10 10s-4.486 10-10 10-10-4.486-10-10 4.486-10 10-10zm0-2c-6.627 0-12 5.373-12 12s5.373 12 12 12 12-5.373 12-12-5.373-12-12-12zm5.848 12.459c.202.038.202.333.001.372-1.907.361-6.045 1.111-6.547 1.111-.719 0-1.301-.582-1.301-1.301 0-.512.77-5.447 1.125-7.445.034-.192.312-.181.343.014l.985 6.238 5.394 1.011z"></path></symbol></defs><defs><marker id="arrowhead" refX="7.9" refY="5" markerUnits="userSpaceOnUse" markerWidth="12" markerHeight="12" orient="auto-start-reverse"><path d="M -1 0 L 10 5 L 0 10 z"></path></marker></defs><defs><marker id="crosshead" markerWidth="15" markerHeight="8" orient="auto" refX="4" refY="4.5"><path fill="none" stroke="#000000" stroke-width="1pt" d="M 1,2 L 6,7 M 6,2 L 1,7" style="stroke-dasharray: 0, 0;"></path></marker></defs><defs><marker id="filled-head" refX="15.5" refY="7" markerWidth="20" markerHeight="28" orient="auto"><path d="M 18,7 L9,13 L14,7 L9,1 Z"></path></marker></defs><defs><marker id="sequencenumber" refX="15" refY="15" markerWidth="60" markerHeight="40" orient="auto"><circle cx="15" cy="15" r="6"></circle></marker></defs><g><rect x="50" y="75" fill="#EDF2AE" stroke="#666" width="1191" height="39" class="note"></rect><text x="646" y="80" text-anchor="middle" dominant-baseline="middle" alignment-baseline="middle" class="noteText" dy="1em" style="font-size: 16px; font-weight: 400;"><tspan x="646">Database Polling Loop</tspan></text></g><g><rect x="-17" y="519" fill="#EDF2AE" stroke="#666" width="184" height="39" class="note"></rect><text x="75" y="524" text-anchor="middle" dominant-baseline="middle" alignment-baseline="middle" class="noteText" dy="1em" style="font-size: 16px; font-weight: 400;"><tspan x="75">Process jobs concurrently</tspan></text></g><g><rect x="992" y="715" fill="#EDF2AE" stroke="#666" width="10" height="112" class="activation0"></rect></g><g><rect x="1022" y="723" fill="#EDF2AE" stroke="#666" width="169" height="58" class="note"></rect><text x="1107" y="728" text-anchor="middle" dominant-baseline="middle" alignment-baseline="middle" class="noteText" dy="1em" style="font-size: 16px; font-weight: 400;"><tspan x="1107">Resource group queues</tspan></text><text x="1107" y="747" text-anchor="middle" dominant-baseline="middle" alignment-baseline="middle" class="noteText" dy="1em" style="font-size: 16px; font-weight: 400;"><tspan x="1107">if at concurrency limit</tspan></text></g><g><rect x="992" y="1010" fill="#EDF2AE" stroke="#666" width="10" height="46" class="activation0"></rect></g><g><line x1="-17" y1="1066" x2="1227" y2="1066" class="loopLine"></line><line x1="1227" y1="1066" x2="1227" y2="1491" class="loopLine"></line><line x1="-17" y1="1491" x2="1227" y2="1491" class="loopLine"></line><line x1="-17" y1="1066" x2="-17" y2="1491" class="loopLine"></line><line x1="-17" y1="1254" x2="1227" y2="1254" class="loopLine" style="stroke-dasharray: 3, 3;"></line><line x1="-17" y1="1345" x2="1227" y2="1345" class="loopLine" style="stroke-dasharray: 3, 3;"></line><polygon points="-17,1066 33,1066 33,1079 24.6,1086 -17,1086" class="labelBox"></polygon><text x="8" y="1079" text-anchor="middle" dominant-baseline="middle" alignment-baseline="middle" class="labelText" style="font-size: 16px; font-weight: 400;">alt</text><text x="630" y="1084" text-anchor="middle" class="loopText" style="font-size: 16px; font-weight: 400;"><tspan x="630">[state == FINISHED]</tspan></text><text x="605" y="1272" text-anchor="middle" class="loopText" style="font-size: 16px; font-weight: 400;">[state == FAILED]</text><text x="605" y="1363" text-anchor="middle" class="loopText" style="font-size: 16px; font-weight: 400;">[state == RUNNING]</text></g><g><line x1="-27" y1="929" x2="1237" y2="929" class="loopLine"></line><line x1="1237" y1="929" x2="1237" y2="1501" class="loopLine"></line><line x1="-27" y1="1501" x2="1237" y2="1501" class="loopLine"></line><line x1="-27" y1="929" x2="-27" y2="1501" class="loopLine"></line><polygon points="-27,929 23,929 23,942 14.6,949 -27,949" class="labelBox"></polygon><text x="-2" y="942" text-anchor="middle" dominant-baseline="middle" alignment-baseline="middle" class="labelText" style="font-size: 16px; font-weight: 400;">loop</text><text x="630" y="947" text-anchor="middle" class="loopText" style="font-size: 16px; font-weight: 400;"><tspan x="630">[Poll until complete (Fibonacci backoff)]</tspan></text></g><g><line x1="64" y1="1603" x2="808" y2="1603" class="loopLine"></line><line x1="808" y1="1603" x2="808" y2="1740" class="loopLine"></line><line x1="64" y1="1740" x2="808" y2="1740" class="loopLine"></line><line x1="64" y1="1603" x2="64" y2="1740" class="loopLine"></line><polygon points="64,1603 114,1603 114,1616 105.6,1623 64,1623" class="labelBox"></polygon><text x="89" y="1616" text-anchor="middle" dominant-baseline="middle" alignment-baseline="middle" class="labelText" style="font-size: 16px; font-weight: 400;">alt</text><text x="461" y="1621" text-anchor="middle" class="loopText" style="font-size: 16px; font-weight: 400;"><tspan x="461">[All complete]</tspan></text></g><g><line x1="-37" y1="568" x2="1247" y2="568" class="loopLine"></line><line x1="1247" y1="568" x2="1247" y2="1750" class="loopLine"></line><line x1="-37" y1="1750" x2="1247" y2="1750" class="loopLine"></line><line x1="-37" y1="568" x2="-37" y2="1750" class="loopLine"></line><polygon points="-37,568 13,568 13,581 4.6,588 -37,588" class="labelBox"></polygon><text x="-12" y="581" text-anchor="middle" dominant-baseline="middle" alignment-baseline="middle" class="labelText" style="font-size: 16px; font-weight: 400;">par</text><text x="630" y="586" text-anchor="middle" class="loopText" style="font-size: 16px; font-weight: 400;"><tspan x="630">[For each claimed job]</tspan></text></g><g><line x1="-47" y1="353" x2="1257" y2="353" class="loopLine"></line><line x1="1257" y1="353" x2="1257" y2="1760" class="loopLine"></line><line x1="-47" y1="1760" x2="1257" y2="1760" class="loopLine"></line><line x1="-47" y1="353" x2="-47" y2="1760" class="loopLine"></line><line x1="-47" y1="479" x2="1257" y2="479" class="loopLine" style="stroke-dasharray: 3, 3;"></line><polygon points="-47,353 3,353 3,366 -5.4,373 -47,373" class="labelBox"></polygon><text x="-22" y="366" text-anchor="middle" dominant-baseline="middle" alignment-baseline="middle" class="labelText" style="font-size: 16px; font-weight: 400;">alt</text><text x="630" y="371" text-anchor="middle" class="loopText" style="font-size: 16px; font-weight: 400;"><tspan x="630">[No jobs found]</tspan></text><text x="605" y="497" text-anchor="middle" class="loopText" style="font-size: 16px; font-weight: 400;">[Jobs claimed]</text></g><g><line x1="-57" y1="124" x2="1267" y2="124" class="loopLine"></line><line x1="1267" y1="124" x2="1267" y2="1770" class="loopLine"></line><line x1="-57" y1="1770" x2="1267" y2="1770" class="loopLine"></line><line x1="-57" y1="124" x2="-57" y2="1770" class="loopLine"></line><polygon points="-57,124 -7,124 -7,137 -15.4,144 -57,144" class="labelBox"></polygon><text x="-32" y="137" text-anchor="middle" dominant-baseline="middle" alignment-baseline="middle" class="labelText" style="font-size: 16px; font-weight: 400;">loop</text><text x="630" y="142" text-anchor="middle" class="loopText" style="font-size: 16px; font-weight: 400;"><tspan x="630">[Main polling loop]</tspan></text></g><text x="259" y="174" text-anchor="middle" dominant-baseline="middle" alignment-baseline="middle" class="messageText" dy="1em" style="font-size: 16px; font-weight: 400;">Claim pending export jobs (limit=10)</text><line x1="76" y1="205" x2="441" y2="205" class="messageLine0" stroke-width="2" stroke="none" marker-end="url(#arrowhead)" style="fill: none;"></line><line x1="76" y1="205" x2="76" y2="205" stroke-width="0" marker-start="url(#sequencenumber)"></line><text x="76" y="209" font-family="sans-serif" font-size="12px" text-anchor="middle" class="sequenceNumber">1</text><text x="620" y="220" text-anchor="middle" dominant-baseline="middle" alignment-baseline="middle" class="messageText" dy="1em" style="font-size: 16px; font-weight: 400;">SELECT ... FOR UPDATE SKIP LOCKED</text><line x1="446" y1="251" x2="793" y2="251" class="messageLine0" stroke-width="2" stroke="none" marker-end="url(#arrowhead)" style="fill: none;"></line><line x1="446" y1="251" x2="446" y2="251" stroke-width="0" marker-start="url(#sequencenumber)"></line><text x="446" y="255" font-family="sans-serif" font-size="12px" text-anchor="middle" class="sequenceNumber">2</text><text x="623" y="266" text-anchor="middle" dominant-baseline="middle" alignment-baseline="middle" class="messageText" dy="1em" style="font-size: 16px; font-weight: 400;">Jobs list</text><line x1="796" y1="297" x2="449" y2="297" class="messageLine1" stroke-width="2" stroke="none" marker-end="url(#arrowhead)" style="stroke-dasharray: 3, 3; fill: none;"></line><line x1="796" y1="297" x2="796" y2="297" stroke-width="0" marker-start="url(#sequencenumber)"></line><text x="796" y="301" font-family="sans-serif" font-size="12px" text-anchor="middle" class="sequenceNumber">3</text><text x="262" y="312" text-anchor="middle" dominant-baseline="middle" alignment-baseline="middle" class="messageText" dy="1em" style="font-size: 16px; font-weight: 400;">Jobs (with SQL, gcs_path, etc.)</text><line x1="444" y1="343" x2="79" y2="343" class="messageLine1" stroke-width="2" stroke="none" marker-end="url(#arrowhead)" style="stroke-dasharray: 3, 3; fill: none;"></line><line x1="444" y1="343" x2="444" y2="343" stroke-width="0" marker-start="url(#sequencenumber)"></line><text x="444" y="347" font-family="sans-serif" font-size="12px" text-anchor="middle" class="sequenceNumber">4</text><text x="76" y="403" text-anchor="middle" dominant-baseline="middle" alignment-baseline="middle" class="messageText" dy="1em" style="font-size: 16px; font-weight: 400;">Sleep (10s backoff)</text><path d="M 76,434 C 136,424 136,464 76,454" class="messageLine0" stroke-width="2" stroke="none" marker-end="url(#arrowhead)" style="fill: none;"></path><line x1="76" y1="434" x2="76" y2="434" stroke-width="0" marker-start="url(#sequencenumber)"></line><text x="76" y="438" font-family="sans-serif" font-size="12px" text-anchor="middle" class="sequenceNumber">5</text><text x="259" y="618" text-anchor="middle" dominant-baseline="middle" alignment-baseline="middle" class="messageText" dy="1em" style="font-size: 16px; font-weight: 400;">Update snapshot status: "creating" (if pending)</text><line x1="76" y1="649" x2="441" y2="649" class="messageLine0" stroke-width="2" stroke="none" marker-end="url(#arrowhead)" style="fill: none;"></line><line x1="76" y1="649" x2="76" y2="649" stroke-width="0" marker-start="url(#sequencenumber)"></line><text x="76" y="653" font-family="sans-serif" font-size="12px" text-anchor="middle" class="sequenceNumber">6</text><text x="533" y="664" text-anchor="middle" dominant-baseline="middle" alignment-baseline="middle" class="messageText" dy="1em" style="font-size: 16px; font-weight: 400;">POST /v1/statement (UNLOAD)</text><text x="533" y="683" text-anchor="middle" dominant-baseline="middle" alignment-baseline="middle" class="messageText" dy="1em" style="font-size: 16px; font-weight: 400;">X-Trino-Client-Tags: graph-olap-export</text><line x1="76" y1="713" x2="989" y2="713" class="messageLine0" stroke-width="2" stroke="none" marker-end="url(#arrowhead)" style="fill: none;"></line><line x1="76" y1="713" x2="76" y2="713" stroke-width="0" marker-start="url(#sequencenumber)"></line><text x="76" y="717" font-family="sans-serif" font-size="12px" text-anchor="middle" class="sequenceNumber">7</text><text x="536" y="796" text-anchor="middle" dominant-baseline="middle" alignment-baseline="middle" class="messageText" dy="1em" style="font-size: 16px; font-weight: 400;">{query_id, nextUri}</text><line x1="992" y1="827" x2="79" y2="827" class="messageLine1" stroke-width="2" stroke="none" marker-end="url(#arrowhead)" style="stroke-dasharray: 3, 3; fill: none;"></line><line x1="992" y1="827" x2="992" y2="827" stroke-width="0" marker-start="url(#sequencenumber)"></line><text x="992" y="831" font-family="sans-serif" font-size="12px" text-anchor="middle" class="sequenceNumber">8</text><text x="259" y="842" text-anchor="middle" dominant-baseline="middle" alignment-baseline="middle" class="messageText" dy="1em" style="font-size: 16px; font-weight: 400;">Start export job (query_id, next_uri)</text><line x1="76" y1="873" x2="441" y2="873" class="messageLine0" stroke-width="2" stroke="none" marker-end="url(#arrowhead)" style="fill: none;"></line><line x1="76" y1="873" x2="76" y2="873" stroke-width="0" marker-start="url(#sequencenumber)"></line><text x="76" y="877" font-family="sans-serif" font-size="12px" text-anchor="middle" class="sequenceNumber">9</text><text x="620" y="888" text-anchor="middle" dominant-baseline="middle" alignment-baseline="middle" class="messageText" dy="1em" style="font-size: 16px; font-weight: 400;">UPDATE export_jobs</text><line x1="446" y1="919" x2="793" y2="919" class="messageLine0" stroke-width="2" stroke="none" marker-end="url(#arrowhead)" style="fill: none;"></line><line x1="446" y1="919" x2="446" y2="919" stroke-width="0" marker-start="url(#sequencenumber)"></line><text x="446" y="923" font-family="sans-serif" font-size="12px" text-anchor="middle" class="sequenceNumber">10</text><text x="533" y="979" text-anchor="middle" dominant-baseline="middle" alignment-baseline="middle" class="messageText" dy="1em" style="font-size: 16px; font-weight: 400;">GET nextUri</text><line x1="76" y1="1010" x2="989" y2="1010" class="messageLine0" stroke-width="2" stroke="none" marker-end="url(#arrowhead)" style="fill: none;"></line><line x1="76" y1="1010" x2="76" y2="1010" stroke-width="0" marker-start="url(#sequencenumber)"></line><text x="76" y="1014" font-family="sans-serif" font-size="12px" text-anchor="middle" class="sequenceNumber">11</text><text x="536" y="1025" text-anchor="middle" dominant-baseline="middle" alignment-baseline="middle" class="messageText" dy="1em" style="font-size: 16px; font-weight: 400;">{state, nextUri}</text><line x1="992" y1="1056" x2="79" y2="1056" class="messageLine1" stroke-width="2" stroke="none" marker-end="url(#arrowhead)" style="stroke-dasharray: 3, 3; fill: none;"></line><line x1="992" y1="1056" x2="992" y2="1056" stroke-width="0" marker-start="url(#sequencenumber)"></line><text x="992" y="1060" font-family="sans-serif" font-size="12px" text-anchor="middle" class="sequenceNumber">12</text><text x="644" y="1116" text-anchor="middle" dominant-baseline="middle" alignment-baseline="middle" class="messageText" dy="1em" style="font-size: 16px; font-weight: 400;">Count Parquet rows</text><line x1="76" y1="1147" x2="1212" y2="1147" class="messageLine0" stroke-width="2" stroke="none" marker-end="url(#arrowhead)" style="fill: none;"></line><line x1="76" y1="1147" x2="76" y2="1147" stroke-width="0" marker-start="url(#sequencenumber)"></line><text x="76" y="1151" font-family="sans-serif" font-size="12px" text-anchor="middle" class="sequenceNumber">13</text><text x="647" y="1162" text-anchor="middle" dominant-baseline="middle" alignment-baseline="middle" class="messageText" dy="1em" style="font-size: 16px; font-weight: 400;">Row count, size</text><line x1="1215" y1="1193" x2="79" y2="1193" class="messageLine1" stroke-width="2" stroke="none" marker-end="url(#arrowhead)" style="stroke-dasharray: 3, 3; fill: none;"></line><line x1="1215" y1="1193" x2="1215" y2="1193" stroke-width="0" marker-start="url(#sequencenumber)"></line><text x="1215" y="1197" font-family="sans-serif" font-size="12px" text-anchor="middle" class="sequenceNumber">14</text><text x="259" y="1208" text-anchor="middle" dominant-baseline="middle" alignment-baseline="middle" class="messageText" dy="1em" style="font-size: 16px; font-weight: 400;">Update job (completed)</text><line x1="76" y1="1239" x2="441" y2="1239" class="messageLine0" stroke-width="2" stroke="none" marker-end="url(#arrowhead)" style="fill: none;"></line><line x1="76" y1="1239" x2="76" y2="1239" stroke-width="0" marker-start="url(#sequencenumber)"></line><text x="76" y="1243" font-family="sans-serif" font-size="12px" text-anchor="middle" class="sequenceNumber">15</text><text x="259" y="1299" text-anchor="middle" dominant-baseline="middle" alignment-baseline="middle" class="messageText" dy="1em" style="font-size: 16px; font-weight: 400;">Update job (failed)</text><line x1="76" y1="1330" x2="441" y2="1330" class="messageLine0" stroke-width="2" stroke="none" marker-end="url(#arrowhead)" style="fill: none;"></line><line x1="76" y1="1330" x2="76" y2="1330" stroke-width="0" marker-start="url(#sequencenumber)"></line><text x="76" y="1334" font-family="sans-serif" font-size="12px" text-anchor="middle" class="sequenceNumber">16</text><text x="76" y="1390" text-anchor="middle" dominant-baseline="middle" alignment-baseline="middle" class="messageText" dy="1em" style="font-size: 16px; font-weight: 400;">Sleep (Fibonacci backoff)</text><path d="M 76,1421 C 136,1411 136,1451 76,1441" class="messageLine0" stroke-width="2" stroke="none" marker-end="url(#arrowhead)" style="fill: none;"></path><line x1="76" y1="1421" x2="76" y2="1421" stroke-width="0" marker-start="url(#sequencenumber)"></line><text x="76" y="1425" font-family="sans-serif" font-size="12px" text-anchor="middle" class="sequenceNumber">17</text><text x="259" y="1516" text-anchor="middle" dominant-baseline="middle" alignment-baseline="middle" class="messageText" dy="1em" style="font-size: 16px; font-weight: 400;">Check all jobs complete</text><line x1="76" y1="1547" x2="441" y2="1547" class="messageLine0" stroke-width="2" stroke="none" marker-end="url(#arrowhead)" style="fill: none;"></line><line x1="76" y1="1547" x2="76" y2="1547" stroke-width="0" marker-start="url(#sequencenumber)"></line><text x="76" y="1551" font-family="sans-serif" font-size="12px" text-anchor="middle" class="sequenceNumber">18</text><text x="620" y="1562" text-anchor="middle" dominant-baseline="middle" alignment-baseline="middle" class="messageText" dy="1em" style="font-size: 16px; font-weight: 400;">SELECT status FROM export_jobs</text><line x1="446" y1="1593" x2="793" y2="1593" class="messageLine0" stroke-width="2" stroke="none" marker-end="url(#arrowhead)" style="fill: none;"></line><line x1="446" y1="1593" x2="446" y2="1593" stroke-width="0" marker-start="url(#sequencenumber)"></line><text x="446" y="1597" font-family="sans-serif" font-size="12px" text-anchor="middle" class="sequenceNumber">19</text><text x="259" y="1653" text-anchor="middle" dominant-baseline="middle" alignment-baseline="middle" class="messageText" dy="1em" style="font-size: 16px; font-weight: 400;">Finalize snapshot (ready/failed)</text><line x1="76" y1="1684" x2="441" y2="1684" class="messageLine0" stroke-width="2" stroke="none" marker-end="url(#arrowhead)" style="fill: none;"></line><line x1="76" y1="1684" x2="76" y2="1684" stroke-width="0" marker-start="url(#sequencenumber)"></line><text x="76" y="1688" font-family="sans-serif" font-size="12px" text-anchor="middle" class="sequenceNumber">20</text><text x="620" y="1699" text-anchor="middle" dominant-baseline="middle" alignment-baseline="middle" class="messageText" dy="1em" style="font-size: 16px; font-weight: 400;">UPDATE snapshots</text><line x1="446" y1="1730" x2="793" y2="1730" class="messageLine0" stroke-width="2" stroke="none" marker-end="url(#arrowhead)" style="fill: none;"></line><line x1="446" y1="1730" x2="446" y2="1730" stroke-width="0" marker-start="url(#sequencenumber)"></line><text x="446" y="1734" font-family="sans-serif" font-size="12px" text-anchor="middle" class="sequenceNumber">21</text></svg>