<svg id="mermaid-1770215497394" width="100%" xmlns="http://www.w3.org/2000/svg" xmlns:xlink="http://www.w3.org/1999/xlink" class="flowchart" style="max-width: 956px;" viewBox="-8 -8 956 1424" role="graphics-document document" aria-roledescription="flowchart-v2" aria-describedby="chart-desc-mermaid-1770215497394" aria-labelledby="chart-title-mermaid-1770215497394" height="auto"><title id="chart-title-mermaid-1770215497394">Graph OLAP Platform Container Diagram (C4 Level 2)</title><desc id="chart-desc-mermaid-1770215497394">Shows major containers including Control Plane, Export Workers, and Graph Instance Pods</desc><style>#mermaid-1770215497394{font-family:"trebuchet ms",verdana,arial,sans-serif;font-size:16px;fill:#333;}@keyframes edge-animation-frame{from{stroke-dashoffset:0;}}@keyframes dash{to{stroke-dashoffset:0;}}#mermaid-1770215497394 .edge-animation-slow{stroke-dasharray:9,5!important;stroke-dashoffset:900;animation:dash 50s linear infinite;stroke-linecap:round;}#mermaid-1770215497394 .edge-animation-fast{stroke-dasharray:9,5!important;stroke-dashoffset:900;animation:dash 20s linear infinite;stroke-linecap:round;}#mermaid-1770215497394 .error-icon{fill:#552222;}#mermaid-1770215497394 .error-text{fill:#552222;stroke:#552222;}#mermaid-1770215497394 .edge-thickness-normal{stroke-width:1px;}#mermaid-1770215497394 .edge-thickness-thick{stroke-width:3.5px;}#mermaid-1770215497394 .edge-pattern-solid{stroke-dasharray:0;}#mermaid-1770215497394 .edge-thickness-invisible{stroke-width:0;fill:none;}#mermaid-1770215497394 .edge-pattern-dashed{stroke-dasharray:3;}#mermaid-1770215497394 .edge-pattern-dotted{stroke-dasharray:2;}#mermaid-1770215497394 .marker{fill:#333333;stroke:#333333;}#mermaid-1770215497394 .marker.cross{stroke:#333333;}#mermaid-1770215497394 svg{font-family:"trebuchet ms",verdana,arial,sans-serif;font-size:16px;}#mermaid-1770215497394 p{margin:0;}#mermaid-1770215497394 .label{font-family:"trebuchet ms",verdana,arial,sans-serif;color:#333;}#mermaid-1770215497394 .cluster-label text{fill:#333;}#mermaid-1770215497394 .cluster-label span{color:#333;}#mermaid-1770215497394 .cluster-label span p{background-color:transparent;}#mermaid-1770215497394 .label text,#mermaid-1770215497394 span{fill:#333;color:#333;}#mermaid-1770215497394 .node rect,#mermaid-1770215497394 .node circle,#mermaid-1770215497394 .node ellipse,#mermaid-1770215497394 .node polygon,#mermaid-1770215497394 .node path{fill:#ECECFF;stroke:#9370DB;stroke-width:1px;}#mermaid-1770215497394 .rough-node .label text,#mermaid-1770215497394 .node .label text,#mermaid-1770215497394 .image-shape .label,#mermaid-1770215497394 .icon-shape .label{text-anchor:middle;}#mermaid-1770215497394 .node .katex path{fill:#000;stroke:#000;stroke-width:1px;}#mermaid-1770215497394 .rough-node .label,#mermaid-1770215497394 .node .label,#mermaid-1770215497394 .image-shape .label,#mermaid-1770215497394 .icon-shape .label{text-align:center;}#mermaid-1770215497394 .node.clickable{cursor:pointer;}#mermaid-1770215497394 .root .anchor path{fill:#333333!important;stroke-width:0;stroke:#333333;}#mermaid-1770215497394 .arrowheadPath{fill:#333333;}#mermaid-1770215497394 .edgePath .path{stroke:#333333;stroke-width:2.0px;}#mermaid-1770215497394 .flowchart-link{stroke:#333333;fill:none;}#mermaid-1770215497394 .edgeLabel{background-color:rgba(232,232,232, 0.8);text-align:center;}#mermaid-1770215497394 .edgeLabel p{background-color:rgba(232,232,232, 0.8);}#mermaid-1770215497394 .edgeLabel rect{opacity:0.5;background-color:rgba(232,232,232, 0.8);fill:rgba(232,232,232, 0.8);}#mermaid-1770215497394 .labelBkg{background-color:rgba(232, 232, 232, 0.5);}#mermaid-1770215497394 .cluster rect{fill:#ffffde;stroke:#aaaa33;stroke-width:1px;}#mermaid-1770215497394 .cluster text{fill:#333;}#mermaid-1770215497394 .cluster span{color:#333;}#mermaid-1770215497394 div.mermaidTooltip{position:absolute;text-align:center;max-width:200px;padding:2px;font-family:"trebuchet ms",verdana,arial,sans-serif;font-size:12px;background:hsl(80, 100%, 96.2745098039%);border:1px solid #aaaa33;border-radius:2px;pointer-events:none;z-index:100;}#mermaid-1770215497394 .flowchartTitleText{text-anchor:middle;font-size:18px;fill:#333;}#mermaid-1770215497394 rect.text{fill:none;stroke-width:0;}#mermaid-1770215497394 .icon-shape,#mermaid-1770215497394 .image-shape{background-color:rgba(232,232,232, 0.8);text-align:center;}#mermaid-1770215497394 .icon-shape p,#mermaid-1770215497394 .image-shape p{background-color:rgba(232,232,232, 0.8);padding:2px;}#mermaid-1770215497394 .icon-shape rect,#mermaid-1770215497394 .image-shape rect{opacity:0.5;background-color:rgba(232,232,232, 0.8);fill:rgba(232,232,232, 0.8);}#mermaid-1770215497394 .label-icon{display:inline-block;height:1em;overflow:visible;vertical-align:-0.125em;}#mermaid-1770215497394 .node .label-icon path{fill:currentColor;stroke:revert;stroke-width:revert;}#mermaid-1770215497394 :root{--mermaid-font-family:"trebuchet ms",verdana,arial,sans-serif;}#mermaid-1770215497394 .user&gt;*{fill:#F3E5F5!important;stroke:#7B1FA2!important;stroke-width:2px!important;color:#4A148C!important;}#mermaid-1770215497394 .user span{fill:#F3E5F5!important;stroke:#7B1FA2!important;stroke-width:2px!important;color:#4A148C!important;}#mermaid-1770215497394 .user tspan{fill:#4A148C!important;}#mermaid-1770215497394 .service&gt;*{fill:#E8F5E9!important;stroke:#2E7D32!important;stroke-width:2px!important;color:#1B5E20!important;}#mermaid-1770215497394 .service span{fill:#E8F5E9!important;stroke:#2E7D32!important;stroke-width:2px!important;color:#1B5E20!important;}#mermaid-1770215497394 .service tspan{fill:#1B5E20!important;}#mermaid-1770215497394 .data&gt;*{fill:#FFF8E1!important;stroke:#F57F17!important;stroke-width:2px!important;color:#E65100!important;}#mermaid-1770215497394 .data span{fill:#FFF8E1!important;stroke:#F57F17!important;stroke-width:2px!important;color:#E65100!important;}#mermaid-1770215497394 .data tspan{fill:#E65100!important;}#mermaid-1770215497394 .external&gt;*{fill:#ECEFF1!important;stroke:#455A64!important;stroke-width:2px!important;color:#263238!important;}#mermaid-1770215497394 .external span{fill:#ECEFF1!important;stroke:#455A64!important;stroke-width:2px!important;color:#263238!important;}#mermaid-1770215497394 .external tspan{fill:#263238!important;}</style><g><marker id="mermaid-1770215497394_flowchart-v2-pointEnd" class="marker flowchart-v2" viewBox="0 0 10 10" refX="5" refY="5" markerUnits="userSpaceOnUse" markerWidth="8" markerHeight="8" orient="auto"><path d="M 0 0 L 10 5 L 0 10 z" class="arrowMarkerPath" style="stroke-width: 1; stroke-dasharray: 1, 0;"></path></marker><marker id="mermaid-1770215497394_flowchart-v2-pointStart" class="marker flowchart-v2" viewBox="0 0 10 10" refX="4.5" refY="5" markerUnits="userSpaceOnUse" markerWidth="8" markerHeight="8" orient="auto"><path d="M 0 5 L 10 10 L 10 0 z" class="arrowMarkerPath" style="stroke-width: 1; stroke-dasharray: 1, 0;"></path></marker><marker id="mermaid-1770215497394_flowchart-v2-circleEnd" class="marker flowchart-v2" viewBox="0 0 10 10" refX="11" refY="5" markerUnits="userSpaceOnUse" markerWidth="11" markerHeight="11" orient="auto"><circle cx="5" cy="5" r="5" class="arrowMarkerPath" style="stroke-width: 1; stroke-dasharray: 1, 0;"></circle></marker><marker id="mermaid-1770215497394_flowchart-v2-circleStart" class="marker flowchart-v2" viewBox="0 0 10 10" refX="-1" refY="5" markerUnits="userSpaceOnUse" markerWidth="11" markerHeight="11" orient="auto"><circle cx="5" cy="5" r="5" class="arrowMarkerPath" style="stroke-width: 1; stroke-dasharray: 1, 0;"></circle></marker><marker id="mermaid-1770215497394_flowchart-v2-crossEnd" class="marker cross flowchart-v2" viewBox="0 0 11 11" refX="12" refY="5.2" markerUnits="userSpaceOnUse" markerWidth="11" markerHeight="11" orient="auto"><path d="M 1,1 l 9,9 M 10,1 l -9,9" class="arrowMarkerPath" style="stroke-width: 2; stroke-dasharray: 1, 0;"></path></marker><marker id="mermaid-1770215497394_flowchart-v2-crossStart" class="marker cross flowchart-v2" viewBox="0 0 11 11" refX="-1" refY="5.2" markerUnits="userSpaceOnUse" markerWidth="11" markerHeight="11" orient="auto"><path d="M 1,1 l 9,9 M 10,1 l -9,9" class="arrowMarkerPath" style="stroke-width: 2; stroke-dasharray: 1, 0;"></path></marker></g><g class="subgraphs"><g class="subgraph"><g class="cluster" id="Platform" data-look="classic"><rect style="" x="91.9609375" y="191.5" width="835.625" height="811.5"></rect><g class="cluster-label" transform="translate(411.140625, 191.5)"><foreignObject width="197.265625" height="24"><div xmlns="http://www.w3.org/1999/xhtml" style="display: table-cell; white-space: nowrap; line-height: 1.5; max-width: 200px; text-align: center;"><span class="nodeLabel"><p>Graph OLAP Platform (GKE)</p></span></div></foreignObject></g></g></g><g class="subgraph"><g class="cluster" id="AsyncTier" data-look="classic"><rect style="" x="444.19010416666674" y="230.5" width="254.046875" height="177"></rect><g class="cluster-label" transform="translate(511.61197916666674, 230.5)"><foreignObject width="119.203125" height="24"><div xmlns="http://www.w3.org/1999/xhtml" style="display: table-cell; white-space: nowrap; line-height: 1.5; max-width: 200px; text-align: center;"><span class="nodeLabel"><p>Async Processing</p></span></div></foreignObject></g></g></g><g class="subgraph"><g class="cluster" id="DataTier" data-look="classic"><rect style="" x="135.9609375" y="782.5" width="779.625" height="201"></rect><g class="cluster-label" transform="translate(492.953125, 782.5)"><foreignObject width="65.640625" height="24"><div xmlns="http://www.w3.org/1999/xhtml" style="display: table-cell; white-space: nowrap; line-height: 1.5; max-width: 200px; text-align: center;"><span class="nodeLabel"><p>Data Tier</p></span></div></foreignObject></g></g></g><g class="subgraph"><g class="cluster" id="ControlTier" data-look="classic"><rect style="" x="547.8723958333334" y="506.5" width="254.046875" height="177"></rect><g class="cluster-label" transform="translate(632.1770833333334, 506.5)"><foreignObject width="85.4375" height="24"><div xmlns="http://www.w3.org/1999/xhtml" style="display: table-cell; white-space: nowrap; line-height: 1.5; max-width: 200px; text-align: center;"><span class="nodeLabel"><p>Control Tier</p></span></div></foreignObject></g></g></g></g><g class="nodes"><g class="node default service" id="flowchart-ExportWorker-5" transform="translate(571.2135416666667, 332.5)"><rect class="basic label-container" style="fill:#E8F5E9 !important;stroke:#2E7D32 !important;stroke-width:2px !important" x="-115.0234375" y="-63" width="230.046875" height="126"></rect><g class="label" style="color:#1B5E20 !important" transform="translate(-85.0234375, -48)"><rect></rect><foreignObject width="170.046875" height="96"><div style="color: rgb(27, 94, 32) !important; display: table-cell; white-space: nowrap; line-height: 1.5; max-width: 200px; text-align: center;" xmlns="http://www.w3.org/1999/xhtml"><span style="color:#1B5E20 !important" class="nodeLabel"><p>Export Worker<br/>───────────────<br/>K8s Deployment<br/>KEDA-scaled (0-N)</p></span></div></foreignObject></g></g><g class="node default service" id="flowchart-Instance1-2" transform="translate(773.5859375, 896.5)"><rect class="basic label-container" style="fill:#E8F5E9 !important;stroke:#2E7D32 !important;stroke-width:2px !important" x="-130" y="-75" width="260" height="150"></rect><g class="label" style="color:#1B5E20 !important" transform="translate(-100, -60)"><rect></rect><foreignObject width="200" height="120"><div style="color: rgb(27, 94, 32) !important; display: table; white-space: break-spaces; line-height: 1.5; max-width: 200px; text-align: center; width: 200px;" xmlns="http://www.w3.org/1999/xhtml"><span style="color:#1B5E20 !important" class="nodeLabel"><p>Graph Instance Pod<br/>───────────────<br/>Graph Wrapper (Ryugraph/FalkorDB)<br/>FastAPI + Embedded DB</p></span></div></foreignObject></g></g><g class="node default service" id="flowchart-Instance2-3" transform="translate(277.9609375, 896.5)"><rect class="basic label-container" style="fill:#E8F5E9 !important;stroke:#2E7D32 !important;stroke-width:2px !important" x="-130" y="-75" width="260" height="150"></rect><g class="label" style="color:#1B5E20 !important" transform="translate(-100, -60)"><rect></rect><foreignObject width="200" height="120"><div style="color: rgb(27, 94, 32) !important; display: table; white-space: break-spaces; line-height: 1.5; max-width: 200px; text-align: center; width: 200px;" xmlns="http://www.w3.org/1999/xhtml"><span style="color:#1B5E20 !important" class="nodeLabel"><p>Graph Instance Pod<br/>───────────────<br/>Graph Wrapper (Ryugraph/FalkorDB)<br/>FastAPI + Embedded DB</p></span></div></foreignObject></g></g><g class="node default service" id="flowchart-InstanceN-4" transform="translate(525.7734375, 896.5)"><rect class="basic label-container" style="fill:#E8F5E9 !important;stroke:#2E7D32 !important;stroke-width:2px !important" x="-87.8125" y="-27" width="175.625" height="54"></rect><g class="label" style="color:#1B5E20 !important" transform="translate(-57.8125, -12)"><rect></rect><foreignObject width="115.625" height="24"><div style="color: rgb(27, 94, 32) !important; display: table-cell; white-space: nowrap; line-height: 1.5; max-width: 200px; text-align: center;" xmlns="http://www.w3.org/1999/xhtml"><span style="color:#1B5E20 !important" class="nodeLabel"><p>... (N instances)</p></span></div></foreignObject></g></g><g class="node default service" id="flowchart-ControlPlane-1" transform="translate(674.8958333333334, 608.5)"><rect class="basic label-container" style="fill:#E8F5E9 !important;stroke:#2E7D32 !important;stroke-width:2px !important" x="-115.0234375" y="-63" width="230.046875" height="126"></rect><g class="label" style="color:#1B5E20 !important" transform="translate(-85.0234375, -48)"><rect></rect><foreignObject width="170.046875" height="96"><div style="color: rgb(27, 94, 32) !important; display: table-cell; white-space: nowrap; line-height: 1.5; max-width: 200px; text-align: center;" xmlns="http://www.w3.org/1999/xhtml"><span style="color:#1B5E20 !important" class="nodeLabel"><p>Control Plane API<br/>───────────────<br/>Python FastAPI<br/>REST API + BG Jobs</p></span></div></foreignObject></g></g><g class="node default user" id="flowchart-SDK-0" transform="translate(736.6979166666667, 51)"><rect class="basic label-container" style="fill:#F3E5F5 !important;stroke:#7B1FA2 !important;stroke-width:2px !important" x="-70.3828125" y="-39" width="140.765625" height="78"></rect><g class="label" style="color:#4A148C !important" transform="translate(-40.3828125, -24)"><rect></rect><foreignObject width="80.765625" height="48"><div style="color: rgb(74, 20, 140) !important; display: table-cell; white-space: nowrap; line-height: 1.5; max-width: 200px; text-align: center;" xmlns="http://www.w3.org/1999/xhtml"><span style="color:#4A148C !important" class="nodeLabel"><p>Python SDK<br/>(Jupyter)</p></span></div></foreignObject></g></g><g class="node default data" id="flowchart-CloudSQL-6" transform="translate(300.5078125, 1185)"><rect class="basic label-container" style="fill:#FFF8E1 !important;stroke:#F57F17 !important;stroke-width:2px !important" x="-69.5859375" y="-39" width="139.171875" height="78"></rect><g class="label" style="color:#E65100 !important" transform="translate(-39.5859375, -24)"><rect></rect><foreignObject width="79.171875" height="48"><div style="color: rgb(230, 81, 0) !important; display: table-cell; white-space: nowrap; line-height: 1.5; max-width: 200px; text-align: center;" xmlns="http://www.w3.org/1999/xhtml"><span style="color:#E65100 !important" class="nodeLabel"><p>Cloud SQL<br/>PostgreSQL</p></span></div></foreignObject></g></g><g class="node default data" id="flowchart-GCS-7" transform="translate(446.59375, 1357)"><rect class="basic label-container" style="fill:#FFF8E1 !important;stroke:#F57F17 !important;stroke-width:2px !important" x="-76.6171875" y="-39" width="153.234375" height="78"></rect><g class="label" style="color:#E65100 !important" transform="translate(-46.6171875, -24)"><rect></rect><foreignObject width="93.234375" height="48"><div style="color: rgb(230, 81, 0) !important; display: table-cell; white-space: nowrap; line-height: 1.5; max-width: 200px; text-align: center;" xmlns="http://www.w3.org/1999/xhtml"><span style="color:#E65100 !important" class="nodeLabel"><p>GCS Bucket<br/>Parquet Files</p></span></div></foreignObject></g></g><g class="node default external" id="flowchart-Starburst-8" transform="translate(103.9609375, 1185)"><rect class="basic label-container" style="fill:#ECEFF1 !important;stroke:#455A64 !important;stroke-width:2px !important" x="-91.9609375" y="-39" width="183.921875" height="78"></rect><g class="label" style="color:#263238 !important" transform="translate(-61.9609375, -24)"><rect></rect><foreignObject width="123.921875" height="48"><div style="color: rgb(38, 50, 56) !important; display: table-cell; white-space: nowrap; line-height: 1.5; max-width: 200px; text-align: center;" xmlns="http://www.w3.org/1999/xhtml"><span style="color:#263238 !important" class="nodeLabel"><p>Starburst<br/>(Resource Group)</p></span></div></foreignObject></g></g></g><g class="edges edgePaths"><path d="M713.237,90L713.237,105.667C713.237,121.333,713.237,152.667,713.237,220.833C713.237,289,713.237,394,713.237,453.583C713.237,513.167,713.237,527.333,713.237,534.417L713.237,541.5" id="L_SDK_ControlPlane_0_0" class="edge-thickness-normal edge-pattern-solid edge-thickness-normal edge-pattern-solid flowchart-link" style=";" data-edge="true" data-et="edge" data-id="L_SDK_ControlPlane_0_0" data-points="W3sieCI6NzEzLjIzNjk3OTE2NjY2NjcsInkiOjkwfSx7IngiOjcxMy4yMzY5NzkxNjY2NjY3LCJ5IjoxODR9LHsieCI6NzEzLjIzNjk3OTE2NjY2NjcsInkiOjQ5OX0seyJ4Ijo3MTMuMjM2OTc5MTY2NjY2NywieSI6NTQ1LjV9XQ==" marker-end="url(#mermaid-1770215497394_flowchart-v2-pointEnd)"></path><path d="M760.159,90L760.159,92.083C760.159,94.167,760.159,98.333,760.521,100.888C760.883,103.443,761.607,104.386,762.44,105.219C763.273,106.052,764.216,106.776,765.729,107.138C767.242,107.5,769.326,107.5,770.839,107.862C772.352,108.224,773.294,108.948,774.128,109.781C774.961,110.614,775.685,111.557,776.047,120.195C776.409,128.833,776.409,145.167,776.771,153.805C777.133,162.443,777.857,163.386,778.69,164.219C779.523,165.052,780.466,165.776,786.023,166.138C791.579,166.5,801.749,166.5,807.306,166.862C812.862,167.224,813.805,167.948,814.638,168.781C815.472,169.614,816.195,170.557,816.557,173.112C816.919,175.667,816.919,179.833,816.919,280.417C816.919,381,816.919,578,816.919,683.583C816.919,789.167,816.919,803.333,816.919,810.417L816.919,817.5" id="L_SDK_Instance1_0_0" class="edge-thickness-normal edge-pattern-solid edge-thickness-normal edge-pattern-solid flowchart-link" style=";" data-edge="true" data-et="edge" data-id="L_SDK_Instance1_0_0" data-points="W3sieCI6NzYwLjE1ODg1NDE2NjY2NjcsInkiOjkwfSx7IngiOjc2MC4xNTg4NTQxNjY2NjY3LCJ5IjoxMDcuNX0seyJ4Ijo3NzYuNDA4ODU0MTY2NjY2NywieSI6MTA3LjV9LHsieCI6Nzc2LjQwODg1NDE2NjY2NjcsInkiOjE2Ni41fSx7IngiOjgxNi45MTkyNzA4MzMzMzM0LCJ5IjoxNjYuNX0seyJ4Ijo4MTYuOTE5MjcwODMzMzMzNCwieSI6MTg0fSx7IngiOjgxNi45MTkyNzA4MzMzMzM0LCJ5Ijo3NzV9LHsieCI6ODE2LjkxOTI3MDgzMzMzMzQsInkiOjgyMS41fV0=" marker-end="url(#mermaid-1770215497394_flowchart-v2-pointEnd)"></path><path d="M636.555,671.5L636.555,674.75C636.555,678,636.555,684.5,636.555,689.417C636.555,694.333,636.555,697.667,636.193,699.805C635.831,701.943,635.107,702.886,634.274,703.719C633.44,704.552,632.497,705.276,547.594,705.638C462.69,706,293.826,706,208.922,706.362C124.018,706.724,123.075,707.448,122.242,708.281C121.409,709.114,120.685,710.057,120.323,760.445C119.961,810.833,119.961,910.667,119.961,965.583C119.961,1020.5,119.961,1030.5,120.323,1035.971C120.685,1041.443,121.409,1042.386,122.242,1043.219C123.075,1044.052,124.018,1044.776,152.914,1045.138C181.81,1045.5,238.659,1045.5,267.555,1045.862C296.451,1046.224,297.393,1046.948,298.227,1047.781C299.06,1048.614,299.784,1049.557,300.146,1065.279C300.508,1081,300.508,1111.5,300.508,1126.75L300.508,1142" id="L_ControlPlane_CloudSQL_0_0" class="edge-thickness-normal edge-pattern-solid edge-thickness-normal edge-pattern-solid flowchart-link" style=";" data-edge="true" data-et="edge" data-id="L_ControlPlane_CloudSQL_0_0" data-points="W3sieCI6NjM2LjU1NDY4NzUsInkiOjY3MS41fSx7IngiOjYzNi41NTQ2ODc1LCJ5Ijo2OTF9LHsieCI6NjM2LjU1NDY4NzUsInkiOjcwNn0seyJ4IjoxMTkuOTYwOTM3NSwieSI6NzA2fSx7IngiOjExOS45NjA5Mzc1LCJ5IjoxMDEwLjV9LHsieCI6MTE5Ljk2MDkzNzUsInkiOjEwNDUuNX0seyJ4IjozMDAuNTA3ODEyNSwieSI6MTA0NS41fSx7IngiOjMwMC41MDc4MTI1LCJ5IjoxMTQ2fV0=" marker-end="url(#mermaid-1770215497394_flowchart-v2-pointEnd)"></path><path d="M713.237,671.5L713.237,674.75C713.237,678,713.237,684.5,713.237,698.417C713.237,712.333,713.237,733.667,713.599,744.805C713.961,755.943,714.685,756.886,715.518,757.719C716.351,758.552,717.294,759.276,718.935,759.638C720.576,760,722.914,760,724.555,760.362C726.195,760.724,727.138,761.448,727.972,762.281C728.805,763.114,729.529,764.057,729.891,766.195C730.253,768.333,730.253,771.667,730.253,780.417C730.253,789.167,730.253,803.333,730.253,810.417L730.253,817.5" id="L_ControlPlane_Instance1_0_0" class="edge-thickness-normal edge-pattern-solid edge-thickness-normal edge-pattern-solid flowchart-link" style=";" data-edge="true" data-et="edge" data-id="L_ControlPlane_Instance1_0_0" data-points="W3sieCI6NzEzLjIzNjk3OTE2NjY2NjcsInkiOjY3MS41fSx7IngiOjcxMy4yMzY5NzkxNjY2NjY3LCJ5Ijo2OTF9LHsieCI6NzEzLjIzNjk3OTE2NjY2NjcsInkiOjc2MH0seyJ4Ijo3MzAuMjUyNjA0MTY2NjY2NiwieSI6NzYwfSx7IngiOjczMC4yNTI2MDQxNjY2NjY2LCJ5Ijo3NzV9LHsieCI6NzMwLjI1MjYwNDE2NjY2NjYsInkiOjgyMS41fV0=" marker-end="url(#mermaid-1770215497394_flowchart-v2-pointEnd)"></path><path d="M609.555,395.5L609.555,398.75C609.555,402,609.555,408.5,609.555,422.417C609.555,436.333,609.555,457.667,609.917,468.805C610.279,479.943,611.002,480.886,611.836,481.719C612.669,482.552,613.612,483.276,616.917,483.638C620.221,484,625.888,484,629.193,484.362C632.497,484.724,633.44,485.448,634.274,486.281C635.107,487.114,635.831,488.057,636.193,490.195C636.555,492.333,636.555,495.667,636.555,504.417C636.555,513.167,636.555,527.333,636.555,534.417L636.555,541.5" id="L_ExportWorker_ControlPlane_0_0" class="edge-thickness-normal edge-pattern-solid edge-thickness-normal edge-pattern-solid flowchart-link" style=";" data-edge="true" data-et="edge" data-id="L_ExportWorker_ControlPlane_0_0" data-points="W3sieCI6NjA5LjU1NDY4NzUsInkiOjM5NS41fSx7IngiOjYwOS41NTQ2ODc1LCJ5Ijo0MTV9LHsieCI6NjA5LjU1NDY4NzUsInkiOjQ4NH0seyJ4Ijo2MzYuNTU0Njg3NSwieSI6NDg0fSx7IngiOjYzNi41NTQ2ODc1LCJ5Ijo0OTl9LHsieCI6NjM2LjU1NDY4NzUsInkiOjU0NS41fV0=" marker-end="url(#mermaid-1770215497394_flowchart-v2-pointEnd)"></path><path d="M532.872,395.5L532.872,398.75C532.872,402,532.872,408.5,532.872,413.417C532.872,418.333,532.872,421.667,532.51,423.805C532.149,425.943,531.425,426.886,530.591,427.719C529.758,428.552,528.815,429.276,458.525,429.638C388.235,430,248.598,430,178.308,430.362C108.018,430.724,107.075,431.448,106.242,432.281C105.409,433.114,104.685,434.057,104.323,530.445C103.961,626.833,103.961,818.667,103.961,936.5C103.961,1054.333,103.961,1098.167,103.961,1120.083L103.961,1142" id="L_ExportWorker_Starburst_0_0" class="edge-thickness-normal edge-pattern-solid edge-thickness-normal edge-pattern-solid flowchart-link" style=";" data-edge="true" data-et="edge" data-id="L_ExportWorker_Starburst_0_0" data-points="W3sieCI6NTMyLjg3MjM5NTgzMzMzMzQsInkiOjM5NS41fSx7IngiOjUzMi44NzIzOTU4MzMzMzM0LCJ5Ijo0MTV9LHsieCI6NTMyLjg3MjM5NTgzMzMzMzQsInkiOjQzMH0seyJ4IjoxMDMuOTYwOTM3NSwieSI6NDMwfSx7IngiOjEwMy45NjA5Mzc1LCJ5IjoxMDEwLjV9LHsieCI6MTAzLjk2MDkzNzUsInkiOjExNDZ9XQ==" marker-end="url(#mermaid-1770215497394_flowchart-v2-pointEnd)"></path><path d="M103.961,1224L103.961,1235.917C103.961,1247.833,103.961,1271.667,104.323,1284.055C104.685,1296.443,105.409,1297.386,106.242,1298.219C107.075,1299.052,108.018,1299.776,157.544,1300.138C207.069,1300.5,305.177,1300.5,354.703,1300.862C404.228,1301.224,405.171,1301.948,406.004,1302.781C406.837,1303.614,407.561,1304.557,407.923,1306.445C408.285,1308.333,408.285,1311.167,408.285,1312.583L408.285,1314" id="L_Starburst_GCS_0_0" class="edge-thickness-normal edge-pattern-solid edge-thickness-normal edge-pattern-solid flowchart-link" style=";" data-edge="true" data-et="edge" data-id="L_Starburst_GCS_0_0" data-points="W3sieCI6MTAzLjk2MDkzNzUsInkiOjEyMjR9LHsieCI6MTAzLjk2MDkzNzUsInkiOjEzMDAuNX0seyJ4Ijo0MDguMjg1MTU2MjUsInkiOjEzMDAuNX0seyJ4Ijo0MDguMjg1MTU2MjUsInkiOjEzMTh9XQ==" marker-end="url(#mermaid-1770215497394_flowchart-v2-pointEnd)"></path><path d="M773.586,971.5L773.586,974.75C773.586,978,773.586,984.5,773.586,991C773.586,997.5,773.586,1004,773.586,1020C773.586,1036,773.586,1061.5,773.586,1104.917C773.586,1148.333,773.586,1209.667,773.586,1244.417C773.586,1279.167,773.586,1287.333,773.224,1291.888C772.862,1296.443,772.138,1297.386,771.305,1298.219C770.472,1299.052,769.529,1299.776,722.61,1300.138C675.691,1300.5,582.797,1300.5,535.878,1300.862C488.96,1301.224,488.017,1301.948,487.183,1302.781C486.35,1303.614,485.626,1304.557,485.264,1306.445C484.902,1308.333,484.902,1311.167,484.902,1312.583L484.902,1314" id="L_Instance1_GCS_0_0" class="edge-thickness-normal edge-pattern-solid edge-thickness-normal edge-pattern-solid flowchart-link" style=";" data-edge="true" data-et="edge" data-id="L_Instance1_GCS_0_0" data-points="W3sieCI6NzczLjU4NTkzNzUsInkiOjk3MS41fSx7IngiOjc3My41ODU5Mzc1LCJ5Ijo5OTF9LHsieCI6NzczLjU4NTkzNzUsInkiOjEwMTAuNX0seyJ4Ijo3NzMuNTg1OTM3NSwieSI6MTA4N30seyJ4Ijo3NzMuNTg1OTM3NSwieSI6MTI3MX0seyJ4Ijo3NzMuNTg1OTM3NSwieSI6MTMwMC41fSx7IngiOjQ4NC45MDIzNDM3NSwieSI6MTMwMC41fSx7IngiOjQ4NC45MDIzNDM3NSwieSI6MTMxOH1d" marker-end="url(#mermaid-1770215497394_flowchart-v2-pointEnd)"></path><path d="M277.961,971.5L277.961,974.75C277.961,978,277.961,984.5,277.961,991C277.961,997.5,277.961,1004,277.961,1009.333C277.961,1014.667,277.961,1018.833,278.323,1021.388C278.685,1023.943,279.409,1024.886,280.242,1025.719C281.075,1026.552,282.018,1027.276,308.928,1027.638C335.839,1028,388.716,1028,415.626,1028.362C442.537,1028.724,443.479,1029.448,444.313,1030.281C445.146,1031.114,445.87,1032.057,446.232,1041.529C446.594,1051,446.594,1069,446.594,1108.667C446.594,1148.333,446.594,1209.667,446.594,1247.5C446.594,1285.333,446.594,1299.667,446.594,1306.833L446.594,1314" id="L_Instance2_GCS_0_0" class="edge-thickness-normal edge-pattern-solid edge-thickness-normal edge-pattern-solid flowchart-link" style=";" data-edge="true" data-et="edge" data-id="L_Instance2_GCS_0_0" data-points="W3sieCI6Mjc3Ljk2MDkzNzUsInkiOjk3MS41fSx7IngiOjI3Ny45NjA5Mzc1LCJ5Ijo5OTF9LHsieCI6Mjc3Ljk2MDkzNzUsInkiOjEwMTAuNX0seyJ4IjoyNzcuOTYwOTM3NSwieSI6MTAyOH0seyJ4Ijo0NDYuNTkzNzUsInkiOjEwMjh9LHsieCI6NDQ2LjU5Mzc1LCJ5IjoxMDg3fSx7IngiOjQ0Ni41OTM3NSwieSI6MTI3MX0seyJ4Ijo0NDYuNTkzNzUsInkiOjEzMTh9XQ==" marker-end="url(#mermaid-1770215497394_flowchart-v2-pointEnd)"></path></g><g class="edgeLabels"><g class="edgeLabel" transform="translate(713.0729166666667, 137)"><g class="label" data-id="L_SDK_ControlPlane_0_0" transform="translate(-22.8359375, -12)"><foreignObject width="45.671875" height="24"><div xmlns="http://www.w3.org/1999/xhtml" class="labelBkg" style="display: table-cell; white-space: nowrap; line-height: 1.5; max-width: 200px; text-align: center;"><span class="edgeLabel"><p>HTTPS</p></span></div></foreignObject></g></g><g class="edgeLabel" transform="translate(776.2447916666667, 137)"><g class="label" data-id="L_SDK_Instance1_0_0" transform="translate(-22.8359375, -12)"><foreignObject width="45.671875" height="24"><div xmlns="http://www.w3.org/1999/xhtml" class="labelBkg" style="display: table-cell; white-space: nowrap; line-height: 1.5; max-width: 200px; text-align: center;"><span class="edgeLabel"><p>HTTPS</p></span></div></foreignObject></g></g><g class="edgeLabel" transform="translate(300.3125, 1087)"><g class="label" data-id="L_ControlPlane_CloudSQL_0_0" transform="translate(-13.3046875, -12)"><foreignObject width="26.609375" height="24"><div xmlns="http://www.w3.org/1999/xhtml" class="labelBkg" style="display: table-cell; white-space: nowrap; line-height: 1.5; max-width: 200px; text-align: center;"><span class="edgeLabel"><p>SQL</p></span></div></foreignObject></g></g><g class="edgeLabel" transform="translate(712.9557291666667, 733)"><g class="label" data-id="L_ControlPlane_Instance1_0_0" transform="translate(-51.71875, -12)"><foreignObject width="103.4375" height="24"><div xmlns="http://www.w3.org/1999/xhtml" class="labelBkg" style="display: table-cell; white-space: nowrap; line-height: 1.5; max-width: 200px; text-align: center;"><span class="edgeLabel"><p>Create/Delete</p></span></div></foreignObject></g></g><g class="edgeLabel" transform="translate(609.484375, 457)"><g class="label" data-id="L_ExportWorker_ControlPlane_0_0" transform="translate(-30.4296875, -12)"><foreignObject width="60.859375" height="24"><div xmlns="http://www.w3.org/1999/xhtml" class="labelBkg" style="display: table-cell; white-space: nowrap; line-height: 1.5; max-width: 200px; text-align: center;"><span class="edgeLabel"><p>Poll jobs</p></span></div></foreignObject></g></g><g class="edgeLabel" transform="translate(103.5, 1087)"><g class="label" data-id="L_ExportWorker_Starburst_0_0" transform="translate(-56.5390625, -24)"><foreignObject width="113.078125" height="48"><div xmlns="http://www.w3.org/1999/xhtml" class="labelBkg" style="display: table-cell; white-space: nowrap; line-height: 1.5; max-width: 200px; text-align: center;"><span class="edgeLabel"><p>Submit UNLOAD<br/>(client_tags)</p></span></div></foreignObject></g></g><g class="edgeLabel" transform="translate(103.4765625, 1271)"><g class="label" data-id="L_Starburst_GCS_0_0" transform="translate(-49.515625, -12)"><foreignObject width="99.03125" height="24"><div xmlns="http://www.w3.org/1999/xhtml" class="labelBkg" style="display: table-cell; white-space: nowrap; line-height: 1.5; max-width: 200px; text-align: center;"><span class="edgeLabel"><p>Write Parquet</p></span></div></foreignObject></g></g><g class="edgeLabel" transform="translate(773.4765625, 1185)"><g class="label" data-id="L_Instance1_GCS_0_0" transform="translate(-41.390625, -12)"><foreignObject width="82.78125" height="24"><div xmlns="http://www.w3.org/1999/xhtml" class="labelBkg" style="display: table-cell; white-space: nowrap; line-height: 1.5; max-width: 200px; text-align: center;"><span class="edgeLabel"><p>COPY FROM</p></span></div></foreignObject></g></g><g class="edgeLabel" transform="translate(446.484375, 1185)"><g class="label" data-id="L_Instance2_GCS_0_0" transform="translate(-41.390625, -12)"><foreignObject width="82.78125" height="24"><div xmlns="http://www.w3.org/1999/xhtml" class="labelBkg" style="display: table-cell; white-space: nowrap; line-height: 1.5; max-width: 200px; text-align: center;"><span class="edgeLabel"><p>COPY FROM</p></span></div></foreignObject></g></g></g></svg>